<svg width="46" height="46" viewBox="0 0 46 46" fill="none" xmlns="http://www.w3.org/2000/svg">
<circle cx="23" cy="23" r="23" fill="#3392B8" fill-opacity="0.05"/>
<circle cx="23" cy="23" r="22.75" stroke="#3392B8" stroke-opacity="0.15" stroke-width="0.5"/>
<rect x="14" y="14" width="18" height="18" fill="white"/>
<path fill-rule="evenodd" clip-rule="evenodd" d="M13.4788 31.8203H13.419C13.419 31.7904 13.404 31.7455 13.404 31.7305C13.404 31.7156 13.404 31.6858 13.3591 31.6858H13.2693V31.8203H13.2244V31.5062H13.3591C13.419 31.5062 13.4638 31.5212 13.4638 31.5809C13.4638 31.6258 13.4488 31.6409 13.434 31.6556C13.4489 31.6707 13.4638 31.6857 13.4638 31.7156V31.7754C13.4638 31.7904 13.4638 31.7904 13.4788 31.7904V31.8203ZM13.419 31.596C13.419 31.5511 13.3891 31.5511 13.3741 31.5511H13.2693V31.6409H13.3591C13.3891 31.6409 13.419 31.6258 13.419 31.596ZM13.6733 31.6557C13.6733 31.4763 13.5238 31.3266 13.3292 31.3266C13.1497 31.3266 13 31.4763 13 31.6557C13 31.8502 13.1497 32 13.3292 32C13.5237 31.9999 13.6733 31.8502 13.6733 31.6557ZM13.6284 31.6557C13.6284 31.8204 13.4938 31.94 13.3292 31.94C13.1645 31.94 13.0449 31.8203 13.0449 31.6557C13.0449 31.5062 13.1646 31.3715 13.3292 31.3715C13.4937 31.3715 13.6284 31.5062 13.6284 31.6557ZM32.0622 25.611C32.0622 26.0599 31.7779 26.2691 31.2691 26.2691H30.2967V25.8202H31.2691C31.3589 25.8202 31.4337 25.8053 31.4638 25.7755C31.4936 25.7455 31.5236 25.7006 31.5236 25.6408C31.5236 25.5808 31.4937 25.5211 31.4638 25.4912C31.4337 25.4612 31.374 25.4463 31.2842 25.4463C30.8205 25.4313 30.2369 25.4612 30.2369 24.8029C30.2369 24.5036 30.4313 24.1744 30.955 24.1744H31.9574V24.6233H31.0297C30.9401 24.6233 30.8801 24.6233 30.8352 24.6531C30.7903 24.698 30.7605 24.7429 30.7605 24.8178C30.7605 24.8926 30.8054 24.9375 30.8652 24.9676C30.9252 24.9824 30.985 24.9974 31.0599 24.9974H31.3291C31.6134 24.9974 31.793 25.0572 31.9127 25.162C32.0023 25.2667 32.0622 25.4015 32.0622 25.611ZM29.9525 25.162C29.8327 25.0572 29.6531 24.9974 29.3688 24.9974H29.0996C29.0249 24.9974 28.9649 24.9823 28.9051 24.9676C28.8452 24.9375 28.8005 24.8926 28.8005 24.8178C28.8005 24.7429 28.8153 24.698 28.8752 24.6531C28.9201 24.6233 28.9799 24.6233 29.0697 24.6233H29.9974V24.1744H28.995C28.4562 24.1744 28.2766 24.5036 28.2766 24.8029C28.2766 25.4611 28.8602 25.4313 29.3241 25.4463C29.4137 25.4463 29.4737 25.4612 29.5035 25.4912C29.5334 25.5211 29.5635 25.5808 29.5635 25.6408C29.5635 25.7006 29.5335 25.7455 29.5035 25.7755C29.4586 25.8053 29.3989 25.8202 29.3091 25.8202H28.3365V26.2691H29.3091C29.8176 26.2691 30.102 26.0598 30.102 25.611C30.102 25.4015 30.0423 25.2667 29.9525 25.162ZM28.0372 25.8354H26.8554V25.4164H28.0074V24.9976H26.8554V24.6085H28.0372V24.1746H26.3616V26.2692H28.0372V25.8354ZM25.8228 24.2794C25.6582 24.1896 25.4637 24.1745 25.2094 24.1745H24.0574V26.2691H24.566V25.5061H25.1047C25.2841 25.5061 25.389 25.5212 25.4638 25.5959C25.5536 25.7006 25.5536 25.8802 25.5536 26.0149V26.2691H26.0472V25.8651C26.0472 25.6706 26.0324 25.5808 25.9725 25.4762C25.9276 25.4162 25.838 25.3414 25.7183 25.2965C25.8528 25.2519 26.0774 25.0722 26.0774 24.7429C26.0773 24.5037 25.9875 24.369 25.8228 24.2794ZM22.98 24.1745H21.379L20.7356 24.8628L20.1221 24.1745H18.1022V26.2691H20.0923L20.7357 25.5808L21.3492 26.2691H22.3218V25.5661H22.9502C23.384 25.5661 23.8181 25.4463 23.8181 24.8628C23.818 24.2942 23.3691 24.1745 22.98 24.1745ZM25.4188 25.0424C25.3441 25.0722 25.2692 25.0722 25.1794 25.0722L24.566 25.0873V24.6083H25.1794C25.2692 24.6083 25.359 24.6083 25.4188 24.6532C25.4788 24.6833 25.5235 24.7431 25.5235 24.8329C25.5235 24.9227 25.4788 24.9975 25.4188 25.0424ZM22.98 25.1471H22.3216V24.6083H22.98C23.1596 24.6083 23.2793 24.6833 23.2793 24.8628C23.2793 25.0424 23.1595 25.1471 22.98 25.1471ZM21.0498 25.2218L21.8278 24.399V26.0897L21.0498 25.2218ZM19.8378 25.8354H18.5959V25.4164H19.7031V24.9976H18.5959V24.6085H19.8528L20.4064 25.2219L19.8378 25.8354ZM30.6706 22.6633H29.9525L29.0098 21.0922V22.6633H27.9925L27.7978 22.1994H26.7505L26.556 22.6633H25.9724C25.733 22.6633 25.4188 22.6034 25.2394 22.4238C25.0748 22.2443 24.985 22.0049 24.985 21.6308C24.985 21.3166 25.0299 21.0323 25.2542 20.8079C25.4037 20.6433 25.6732 20.5685 26.0172 20.5685H26.496V21.0175H26.0172C25.8378 21.0175 25.7329 21.0474 25.6283 21.1372C25.5384 21.227 25.4935 21.3915 25.4935 21.616C25.4935 21.8404 25.5384 22.005 25.6283 22.1098C25.703 22.1845 25.8378 22.2145 25.9723 22.2145H26.1968L26.915 20.5686H27.6631L28.501 22.5436V20.5685H29.2791L30.1619 22.0199V20.5685H30.6705V22.6633H30.6706ZM24.7306 20.5685H24.222V22.6633H24.7306V20.5685ZM23.6682 20.6583C23.5036 20.5685 23.3242 20.5685 23.0698 20.5685H21.9176V22.6633H22.4113V21.9001H22.95C23.1296 21.9001 23.2493 21.9151 23.3241 21.9899C23.4139 22.0947 23.3988 22.2743 23.3988 22.394V22.6633H23.9074V22.2443C23.9074 22.0648 23.8925 21.975 23.8178 21.8702C23.7729 21.8103 23.6831 21.7355 23.5784 21.6907C23.7129 21.6308 23.9375 21.4663 23.9375 21.1371C23.9376 20.8977 23.8328 20.763 23.6682 20.6583ZM21.5585 22.2294H20.3914V21.8104H21.5435V21.3766H20.3914V21.0025H21.5585V20.5686H19.8827V22.6634H21.5585V22.2294ZM19.5087 20.5685H18.6857L18.0723 21.9899L17.4139 20.5685H16.606V22.5435L15.7531 20.5685H15.005L14.1073 22.6633H14.6459L14.8404 22.1994H15.8877L16.0822 22.6633H17.0997V21.0175L17.8328 22.6633H18.2666L18.9999 21.0175V22.6633H19.5085L19.5087 20.5685ZM27.6184 21.7506L27.2742 20.9276L26.9301 21.7506H27.6184ZM23.2793 21.4215C23.2045 21.4664 23.1297 21.4664 23.0249 21.4664H22.4113V21.0026H23.0248C23.1146 21.0026 23.2192 21.0026 23.2792 21.0325C23.3389 21.0774 23.369 21.1373 23.369 21.227C23.369 21.3167 23.339 21.3914 23.2793 21.4215ZM15.0199 21.7506L15.3641 20.9276L15.7082 21.7506H15.0199ZM31.9425 14H14.0922V21.5411L14.7057 20.1496H16.0074L16.187 20.4938V20.1496H17.7132L18.0573 20.8977L18.3865 20.1496H23.2493C23.4736 20.1496 23.6681 20.1945 23.8179 20.3142V20.1496H25.1495V20.3142C25.3738 20.1944 25.6581 20.1496 25.9874 20.1496H27.9175L28.0971 20.4938V20.1496H29.5185L29.7281 20.4938V20.1496H31.1194V23.0823H29.7131L29.4439 22.6334V23.0823H27.6932L27.4987 22.6035H27.0646L26.8702 23.0823H25.9575C25.5984 23.0823 25.329 22.9925 25.1496 22.9028V23.0823H22.98V22.4089C22.98 22.3191 22.9651 22.3042 22.9052 22.3042H22.8304V23.0822H18.6408V22.7081L18.4913 23.0822H17.6085L17.4589 22.723V23.0822H15.7681L15.5886 22.6034H15.1546L14.9601 23.0822H14.0922V31.9251H31.9425V26.5534C31.7481 26.6432 31.4786 26.6881 31.2093 26.6881H29.9076V26.5085C29.758 26.6284 29.4886 26.6881 29.2343 26.6881H25.1345V26.0149C25.1345 25.9251 25.1197 25.9251 25.0447 25.9251H24.97V26.6881H23.6233V25.8952C23.399 25.9998 23.1446 25.9998 22.9201 25.9998H22.7705V26.6881H21.1246L20.7357 26.2392L20.3018 26.6881H17.6533V23.7556H20.3465L20.7356 24.2043L21.1546 23.7556H22.9651C23.1744 23.7556 23.5186 23.7854 23.6682 23.935V23.7556H25.2841C25.4487 23.7556 25.7631 23.7854 25.9724 23.935V23.7556H28.4113V23.9351C28.546 23.8154 28.8005 23.7557 29.0248 23.7557H30.3863V23.9351C30.5361 23.8304 30.7454 23.7557 31.0149 23.7557H31.9425V14Z" fill="#0077A6"/>
<path fill-rule="evenodd" clip-rule="evenodd" d="M13.4788 31.8203H13.419C13.419 31.7904 13.404 31.7455 13.404 31.7305C13.404 31.7156 13.404 31.6858 13.3591 31.6858H13.2693V31.8203H13.2244V31.5062H13.3591C13.419 31.5062 13.4638 31.5212 13.4638 31.5809C13.4638 31.6258 13.4488 31.6409 13.434 31.6556C13.4489 31.6707 13.4638 31.6857 13.4638 31.7156V31.7754C13.4638 31.7904 13.4638 31.7904 13.4788 31.7904V31.8203ZM13.419 31.596C13.419 31.5511 13.3891 31.5511 13.3741 31.5511H13.2693V31.6409H13.3591C13.3891 31.6409 13.419 31.6258 13.419 31.596ZM13.6733 31.6557C13.6733 31.4763 13.5238 31.3266 13.3292 31.3266C13.1497 31.3266 13 31.4763 13 31.6557C13 31.8502 13.1497 32 13.3292 32C13.5237 31.9999 13.6733 31.8502 13.6733 31.6557ZM13.6284 31.6557C13.6284 31.8204 13.4938 31.94 13.3292 31.94C13.1645 31.94 13.0449 31.8203 13.0449 31.6557C13.0449 31.5062 13.1646 31.3715 13.3292 31.3715C13.4937 31.3715 13.6284 31.5062 13.6284 31.6557ZM32.0622 25.611C32.0622 26.0599 31.7779 26.2691 31.2691 26.2691H30.2967V25.8202H31.2691C31.3589 25.8202 31.4337 25.8053 31.4638 25.7755C31.4936 25.7455 31.5236 25.7006 31.5236 25.6408C31.5236 25.5808 31.4937 25.5211 31.4638 25.4912C31.4337 25.4612 31.374 25.4463 31.2842 25.4463C30.8205 25.4313 30.2369 25.4612 30.2369 24.8029C30.2369 24.5036 30.4313 24.1744 30.955 24.1744H31.9574V24.6233H31.0297C30.9401 24.6233 30.8801 24.6233 30.8352 24.6531C30.7903 24.698 30.7605 24.7429 30.7605 24.8178C30.7605 24.8926 30.8054 24.9375 30.8652 24.9676C30.9252 24.9824 30.985 24.9974 31.0599 24.9974H31.3291C31.6134 24.9974 31.793 25.0572 31.9127 25.162C32.0023 25.2667 32.0622 25.4015 32.0622 25.611ZM29.9525 25.162C29.8327 25.0572 29.6531 24.9974 29.3688 24.9974H29.0996C29.0249 24.9974 28.9649 24.9823 28.9051 24.9676C28.8452 24.9375 28.8005 24.8926 28.8005 24.8178C28.8005 24.7429 28.8153 24.698 28.8752 24.6531C28.9201 24.6233 28.9799 24.6233 29.0697 24.6233H29.9974V24.1744H28.995C28.4562 24.1744 28.2766 24.5036 28.2766 24.8029C28.2766 25.4611 28.8602 25.4313 29.3241 25.4463C29.4137 25.4463 29.4737 25.4612 29.5035 25.4912C29.5334 25.5211 29.5635 25.5808 29.5635 25.6408C29.5635 25.7006 29.5335 25.7455 29.5035 25.7755C29.4586 25.8053 29.3989 25.8202 29.3091 25.8202H28.3365V26.2691H29.3091C29.8176 26.2691 30.102 26.0598 30.102 25.611C30.102 25.4015 30.0423 25.2667 29.9525 25.162ZM28.0372 25.8354H26.8554V25.4164H28.0074V24.9976H26.8554V24.6085H28.0372V24.1746H26.3616V26.2692H28.0372V25.8354ZM25.8228 24.2794C25.6582 24.1896 25.4637 24.1745 25.2094 24.1745H24.0574V26.2691H24.566V25.5061H25.1047C25.2841 25.5061 25.389 25.5212 25.4638 25.5959C25.5536 25.7006 25.5536 25.8802 25.5536 26.0149V26.2691H26.0472V25.8651C26.0472 25.6706 26.0324 25.5808 25.9725 25.4762C25.9276 25.4162 25.838 25.3414 25.7183 25.2965C25.8528 25.2519 26.0774 25.0722 26.0774 24.7429C26.0773 24.5037 25.9875 24.369 25.8228 24.2794ZM22.98 24.1745H21.379L20.7356 24.8628L20.1221 24.1745H18.1022V26.2691H20.0923L20.7357 25.5808L21.3492 26.2691H22.3218V25.5661H22.9502C23.384 25.5661 23.8181 25.4463 23.8181 24.8628C23.818 24.2942 23.3691 24.1745 22.98 24.1745ZM25.4188 25.0424C25.3441 25.0722 25.2692 25.0722 25.1794 25.0722L24.566 25.0873V24.6083H25.1794C25.2692 24.6083 25.359 24.6083 25.4188 24.6532C25.4788 24.6833 25.5235 24.7431 25.5235 24.8329C25.5235 24.9227 25.4788 24.9975 25.4188 25.0424ZM22.98 25.1471H22.3216V24.6083H22.98C23.1596 24.6083 23.2793 24.6833 23.2793 24.8628C23.2793 25.0424 23.1595 25.1471 22.98 25.1471ZM21.0498 25.2218L21.8278 24.399V26.0897L21.0498 25.2218ZM19.8378 25.8354H18.5959V25.4164H19.7031V24.9976H18.5959V24.6085H19.8528L20.4064 25.2219L19.8378 25.8354ZM30.6706 22.6633H29.9525L29.0098 21.0922V22.6633H27.9925L27.7978 22.1994H26.7505L26.556 22.6633H25.9724C25.733 22.6633 25.4188 22.6034 25.2394 22.4238C25.0748 22.2443 24.985 22.0049 24.985 21.6308C24.985 21.3166 25.0299 21.0323 25.2542 20.8079C25.4037 20.6433 25.6732 20.5685 26.0172 20.5685H26.496V21.0175H26.0172C25.8378 21.0175 25.7329 21.0474 25.6283 21.1372C25.5384 21.227 25.4935 21.3915 25.4935 21.616C25.4935 21.8404 25.5384 22.005 25.6283 22.1098C25.703 22.1845 25.8378 22.2145 25.9723 22.2145H26.1968L26.915 20.5686H27.6631L28.501 22.5436V20.5685H29.2791L30.1619 22.0199V20.5685H30.6705V22.6633H30.6706ZM24.7306 20.5685H24.222V22.6633H24.7306V20.5685ZM23.6682 20.6583C23.5036 20.5685 23.3242 20.5685 23.0698 20.5685H21.9176V22.6633H22.4113V21.9001H22.95C23.1296 21.9001 23.2493 21.9151 23.3241 21.9899C23.4139 22.0947 23.3988 22.2743 23.3988 22.394V22.6633H23.9074V22.2443C23.9074 22.0648 23.8925 21.975 23.8178 21.8702C23.7729 21.8103 23.6831 21.7355 23.5784 21.6907C23.7129 21.6308 23.9375 21.4663 23.9375 21.1371C23.9376 20.8977 23.8328 20.763 23.6682 20.6583ZM21.5585 22.2294H20.3914V21.8104H21.5435V21.3766H20.3914V21.0025H21.5585V20.5686H19.8827V22.6634H21.5585V22.2294ZM19.5087 20.5685H18.6857L18.0723 21.9899L17.4139 20.5685H16.606V22.5435L15.7531 20.5685H15.005L14.1073 22.6633H14.6459L14.8404 22.1994H15.8877L16.0822 22.6633H17.0997V21.0175L17.8328 22.6633H18.2666L18.9999 21.0175V22.6633H19.5085L19.5087 20.5685ZM27.6184 21.7506L27.2742 20.9276L26.9301 21.7506H27.6184ZM23.2793 21.4215C23.2045 21.4664 23.1297 21.4664 23.0249 21.4664H22.4113V21.0026H23.0248C23.1146 21.0026 23.2192 21.0026 23.2792 21.0325C23.3389 21.0774 23.369 21.1373 23.369 21.227C23.369 21.3167 23.339 21.3914 23.2793 21.4215ZM15.0199 21.7506L15.3641 20.9276L15.7082 21.7506H15.0199ZM31.9425 14H14.0922V21.5411L14.7057 20.1496H16.0074L16.187 20.4938V20.1496H17.7132L18.0573 20.8977L18.3865 20.1496H23.2493C23.4736 20.1496 23.6681 20.1945 23.8179 20.3142V20.1496H25.1495V20.3142C25.3738 20.1944 25.6581 20.1496 25.9874 20.1496H27.9175L28.0971 20.4938V20.1496H29.5185L29.7281 20.4938V20.1496H31.1194V23.0823H29.7131L29.4439 22.6334V23.0823H27.6932L27.4987 22.6035H27.0646L26.8702 23.0823H25.9575C25.5984 23.0823 25.329 22.9925 25.1496 22.9028V23.0823H22.98V22.4089C22.98 22.3191 22.9651 22.3042 22.9052 22.3042H22.8304V23.0822H18.6408V22.7081L18.4913 23.0822H17.6085L17.4589 22.723V23.0822H15.7681L15.5886 22.6034H15.1546L14.9601 23.0822H14.0922V31.9251H31.9425V26.5534C31.7481 26.6432 31.4786 26.6881 31.2093 26.6881H29.9076V26.5085C29.758 26.6284 29.4886 26.6881 29.2343 26.6881H25.1345V26.0149C25.1345 25.9251 25.1197 25.9251 25.0447 25.9251H24.97V26.6881H23.6233V25.8952C23.399 25.9998 23.1446 25.9998 22.9201 25.9998H22.7705V26.6881H21.1246L20.7357 26.2392L20.3018 26.6881H17.6533V23.7556H20.3465L20.7356 24.2043L21.1546 23.7556H22.9651C23.1744 23.7556 23.5186 23.7854 23.6682 23.935V23.7556H25.2841C25.4487 23.7556 25.7631 23.7854 25.9724 23.935V23.7556H28.4113V23.9351C28.546 23.8154 28.8005 23.7557 29.0248 23.7557H30.3863V23.9351C30.5361 23.8304 30.7454 23.7557 31.0149 23.7557H31.9425V14Z" fill="white" fill-opacity="0.2"/>
</svg>
