<svg width="42" height="42" viewBox="0 0 42 42" fill="none" xmlns="http://www.w3.org/2000/svg">
<path fill-rule="evenodd" clip-rule="evenodd" d="M17.2775 21.5781H13.4863V25.0589H17.1023C17.6456 25.0431 18.6497 24.8725 18.6497 23.3671C18.6497 21.5598 17.2775 21.5781 17.2775 21.5781ZM26.9828 19.5707C24.9707 19.5707 24.6911 21.5788 24.6911 21.5788H28.9686C28.9686 21.5788 28.9948 19.5707 26.9828 19.5707ZM17.2768 16.6648H13.4863V19.5707H17.0419C17.6561 19.5707 18.1982 19.3738 18.1982 18.0193C18.1982 16.6648 17.2768 16.6648 17.2768 16.6648Z" fill="#1D63F8"/>
<path fill-rule="evenodd" clip-rule="evenodd" d="M31.4646 23.3166H24.7157C24.7157 25.7355 27.0086 25.5833 27.0086 25.5833C29.1729 25.5833 29.0968 24.1828 29.0968 24.1828H31.3884C31.3884 27.8998 26.9312 27.6452 26.9312 27.6452C21.5841 27.6452 21.9279 22.6669 21.9279 22.6669C21.9279 22.6669 21.9227 17.6636 26.9312 17.6636C32.2022 17.6636 31.4646 23.3166 31.4646 23.3166ZM21.4134 23.5292C21.4134 27.5034 17.2764 27.3735 17.2764 27.3735H10.5V14.3496H17.2764C19.3358 14.3496 20.9619 15.4875 20.9619 17.8172C20.9619 20.1482 18.9748 20.2952 18.9748 20.2952C21.5946 20.2952 21.4134 23.5292 21.4134 23.5292ZM24.1303 15.1174H29.5037V16.7213H24.1303V15.1174ZM21 0C9.40144 0 0 9.40144 0 21C0 32.5973 9.40144 42 21 42C32.5986 42 42 32.5973 42 21C42 9.40144 32.5986 0 21 0Z" fill="#1D63F8"/>
</svg>
