<svg width="26" height="24" viewBox="0 0 26 24" fill="none" xmlns="http://www.w3.org/2000/svg">
<path opacity="0.4" d="M3.66663 1.5H16.5C18.433 1.5 20 3.067 20 5V5C20 6.933 18.433 8.5 16.5 8.5H3.66663V1.5Z" fill="#FF6652"/>
<path fill-rule="evenodd" clip-rule="evenodd" d="M0.458313 1.5C0.458313 1.01675 0.850064 0.625 1.33331 0.625H16.5C18.9162 0.625 20.875 2.58375 20.875 5C20.875 7.41625 18.9162 9.375 16.5 9.375H1.33331C0.850064 9.375 0.458313 8.98325 0.458313 8.5C0.458313 8.01675 0.850064 7.625 1.33331 7.625H16.5C17.9497 7.625 19.125 6.44975 19.125 5C19.125 3.55025 17.9497 2.375 16.5 2.375H1.33331C0.850064 2.375 0.458313 1.98325 0.458313 1.5Z" fill="#FF6652"/>
<path opacity="0.4" d="M3.66663 15.5H16.5C18.433 15.5 20 17.067 20 19V19C20 20.933 18.433 22.5 16.5 22.5H3.66663V15.5Z" fill="#FF6652"/>
<path fill-rule="evenodd" clip-rule="evenodd" d="M0.458313 15.5C0.458313 15.0168 0.850064 14.625 1.33331 14.625H16.5C18.9162 14.625 20.875 16.5838 20.875 19C20.875 21.4162 18.9162 23.375 16.5 23.375H1.33331C0.850064 23.375 0.458313 22.9832 0.458313 22.5C0.458313 22.0168 0.850064 21.625 1.33331 21.625H16.5C17.9497 21.625 19.125 20.4497 19.125 19C19.125 17.5503 17.9497 16.375 16.5 16.375H1.33331C0.850064 16.375 0.458313 15.9832 0.458313 15.5Z" fill="#FF6652"/>
<path opacity="0.4" d="M22.3333 8.5H9.49998C7.56698 8.5 5.99998 10.067 5.99998 12V12C5.99998 13.933 7.56698 15.5 9.49998 15.5H22.3333V8.5Z" fill="#FF6652"/>
<path fill-rule="evenodd" clip-rule="evenodd" d="M25.5416 8.5C25.5416 8.01675 25.1499 7.625 24.6666 7.625H9.49996C7.08371 7.625 5.12496 9.58375 5.12496 12C5.12496 14.4162 7.08371 16.375 9.49996 16.375H24.6666C25.1499 16.375 25.5416 15.9832 25.5416 15.5C25.5416 15.0168 25.1499 14.625 24.6666 14.625H9.49996C8.05021 14.625 6.87496 13.4497 6.87496 12C6.87496 10.5503 8.05021 9.375 9.49996 9.375H24.6666C25.1499 9.375 25.5416 8.98325 25.5416 8.5Z" fill="#FF6652"/>
</svg>
