<svg width="11" height="13" viewBox="0 0 11 13" fill="none" xmlns="http://www.w3.org/2000/svg">
<path fill-rule="evenodd" clip-rule="evenodd" d="M10.5218 2.59455C10.7578 2.59455 10.9544 2.79056 10.9544 3.03997V3.27056C10.9544 3.5139 10.7578 3.71598 10.5218 3.71598H0.464445C0.227781 3.71598 0.03125 3.5139 0.03125 3.27056V3.03997C0.03125 2.79056 0.227781 2.59455 0.464445 2.59455H2.23382C2.59324 2.59455 2.90603 2.33907 2.98689 1.97861L3.07955 1.56475C3.22355 1.001 3.69747 0.626587 4.23985 0.626587H6.74577C7.28225 0.626587 7.76148 1.001 7.90017 1.53502L7.99932 1.97801C8.07958 2.33907 8.39238 2.59455 8.75239 2.59455H10.5218ZM9.6232 11.0239C9.80793 9.30229 10.1313 5.21223 10.1313 5.17097C10.1432 5.04596 10.1024 4.92763 10.0216 4.83235C9.93482 4.74315 9.82504 4.69035 9.70405 4.69035H1.28686C1.16528 4.69035 1.0496 4.74315 0.969337 4.83235C0.887892 4.92763 0.847759 5.04596 0.853661 5.17097C0.854745 5.17855 0.86635 5.32262 0.885752 5.56348C0.971942 6.63348 1.212 9.61367 1.36712 11.0239C1.47689 12.0628 2.15856 12.7157 3.14593 12.7394C3.90786 12.757 4.69281 12.7631 5.49546 12.7631C6.25148 12.7631 7.01931 12.757 7.80484 12.7394C8.82645 12.7218 9.50752 12.0804 9.6232 11.0239Z" fill="#FF6652"/>
</svg>
