<svg width="74" height="75" viewBox="0 0 74 75" fill="none" xmlns="http://www.w3.org/2000/svg">
<rect x="4.42773" y="4.92871" width="65.1429" height="65.1429" rx="32.5714" fill="#F5EDFE"/>
<rect x="4.42773" y="4.92871" width="65.1429" height="65.1429" rx="32.5714" stroke="#F9F5FF" stroke-width="8.14286"/>
<path d="M31.5725 42.9285L37.0011 37.4999M37.0011 37.4999L42.4297 42.9285M37.0011 37.4999V49.7142M47.8583 43.9366C49.516 42.5676 50.5725 40.4964 50.5725 38.1785C50.5725 34.0561 47.2307 30.7142 43.1083 30.7142C42.8117 30.7142 42.5343 30.5595 42.3837 30.304C40.6139 27.3008 37.3464 25.2856 33.6083 25.2856C27.9868 25.2856 23.4297 29.8427 23.4297 35.4642C23.4297 38.2682 24.5635 40.8074 26.3977 42.6483" stroke="#7F56D9" stroke-width="2.71429" stroke-linecap="round" stroke-linejoin="round"/>
</svg>
