<svg width="40" height="40" viewBox="0 0 40 40" fill="none" xmlns="http://www.w3.org/2000/svg">
<path fill-rule="evenodd" clip-rule="evenodd" d="M8.26609 15.376L0 8.4798L12.0657 1L20 7.37185L27.9343 1L40 8.4798L32.0148 15.1378L39.0897 20.7896L27.1642 28.547L20.2802 22.8606L12.8363 29.01L0.912593 21.2531L8.26609 15.376ZM20.2119 22.8041L19.7101 22.3897L31.3687 15.1399L20 7.79198L8.26924 15.3747L20.2119 22.8041ZM32.4947 28.8697V30.7762L19.7256 38.7786L6.95654 30.7775V28.8719L11.9136 32.1009C12.0709 32.2033 12.2495 32.2525 12.4303 32.2525C12.6431 32.2525 12.8591 32.1763 13.0322 32.0332L19.7256 26.5068L26.419 32.0305C26.5926 32.1763 26.8054 32.2503 27.021 32.2503C27.2018 32.2503 27.3803 32.2011 27.5372 32.0986L32.4947 28.8697Z" fill="#005CFF"/>
</svg>
