<svg width="66" height="66" viewBox="0 0 66 66" fill="none" xmlns="http://www.w3.org/2000/svg">
<circle cx="33" cy="33" r="33" fill="white"/>
<path fill-rule="evenodd" clip-rule="evenodd" d="M31.9875 23.2634C28.8428 21.0598 24.4295 20.0612 21.1445 19.69C19.5188 19.5063 18.1914 20.8639 18.1914 22.5389V39.2194C18.1914 40.8944 19.5188 42.2525 21.1445 42.4362C24.4295 42.8074 28.8428 43.806 31.9875 46.0096C32.2897 46.2213 32.6444 46.3272 32.9991 46.3272V23.581C32.6444 23.581 32.2897 23.4751 31.9875 23.2634ZM21.5364 27.2844C21.6302 26.6783 22.1977 26.263 22.8038 26.3569C24.7329 26.6557 26.9055 27.155 28.9575 27.9486C29.5296 28.1698 29.814 28.8129 29.5928 29.3849C29.3716 29.957 28.7285 30.2414 28.1564 30.0202C26.2926 29.2995 24.2834 28.8337 22.4639 28.5519C21.8578 28.458 21.4425 27.8906 21.5364 27.2844ZM22.8038 32.28C22.1977 32.1861 21.6302 32.6014 21.5364 33.2075C21.4425 33.8136 21.8578 34.3811 22.4639 34.475C23.3809 34.617 24.3488 34.8062 25.3237 35.0521C25.9184 35.2022 26.5222 34.8417 26.6722 34.247C26.8223 33.6523 26.4618 33.0485 25.8671 32.8985C24.8172 32.6336 23.7808 32.4313 22.8038 32.28Z" fill="#7F56D9"/>
<path opacity="0.4" d="M34.0116 23.2634C37.1563 21.0598 41.5696 20.0612 44.8545 19.69C46.4803 19.5063 47.8077 20.8639 47.8077 22.5389V39.2194C47.8077 40.8944 46.4803 42.2525 44.8545 42.4362C41.5696 42.8074 37.1563 43.806 34.0116 46.0096C33.7094 46.2213 33.3547 46.3272 33 46.3272V23.581C33.3547 23.581 33.7094 23.4751 34.0116 23.2634Z" fill="#7F56D9"/>
<path fill-rule="evenodd" clip-rule="evenodd" d="M41.8849 36.332C42.4983 36.332 42.9955 36.8293 42.9955 37.4426V40.7743H46.3272C46.9406 40.7743 47.4378 41.2716 47.4378 41.8849C47.4378 42.4983 46.9406 42.9955 46.3272 42.9955H42.9955V46.3272C42.9955 46.9406 42.4983 47.4378 41.8849 47.4378C41.2716 47.4378 40.7743 46.9406 40.7743 46.3272V42.9955H37.4426C36.8293 42.9955 36.332 42.4983 36.332 41.8849C36.332 41.2716 36.8293 40.7743 37.4426 40.7743H40.7743V37.4426C40.7743 36.8293 41.2716 36.332 41.8849 36.332Z" fill="#7F56D9"/>
</svg>
