<svg width="66" height="66" viewBox="0 0 66 66" fill="none" xmlns="http://www.w3.org/2000/svg">
<circle cx="33" cy="33" r="33" fill="white"/>
<path fill-rule="evenodd" clip-rule="evenodd" d="M47.5723 27.402H41.3015C38.3833 27.4072 36.0192 29.7122 36.0139 32.5575C36.01 35.4092 38.3767 37.7245 41.3015 37.7283H47.5776V38.1814C47.5776 43.1558 44.562 46.0974 39.4587 46.0974H26.0812C20.9766 46.0974 17.9609 43.1558 17.9609 38.1814V27.3469C17.9609 22.3724 20.9766 19.4424 26.0812 19.4424H39.4534C44.5567 19.4424 47.5723 22.3724 47.5723 27.3469V27.402ZM24.9794 27.3905H33.3313H33.3366H33.3471C33.9724 27.3879 34.4778 26.8913 34.4752 26.2804C34.4726 25.6707 33.9618 25.1779 33.3366 25.1805H24.9794C24.3581 25.183 23.854 25.6746 23.8514 26.2816C23.8487 26.8913 24.3542 27.3879 24.9794 27.3905Z" fill="#477AFF"/>
<path opacity="0.4" d="M38.7488 33.2092C39.0584 34.6178 40.2934 35.6088 41.7033 35.583H46.5159C47.1025 35.583 47.5784 35.0972 47.5784 34.4966V30.7478C47.5771 30.1486 47.1025 29.6614 46.5159 29.6602H41.59C39.9862 29.6653 38.6908 30.9965 38.6934 32.637C38.6934 32.8291 38.7122 33.0211 38.7488 33.2092" fill="#477AFF"/>
<circle cx="41.6547" cy="32.6219" r="1.48083" fill="#477AFF"/>
</svg>
