<svg width="24" height="24" viewBox="0 0 24 24" fill="none" xmlns="http://www.w3.org/2000/svg">
<path d="M12.0003 15C13.6572 15 15.0003 13.6569 15.0003 12C15.0003 10.3431 13.6572 9 12.0003 9C10.3435 9 9.00033 10.3431 9.00033 12C9.00033 13.6569 10.3435 15 12.0003 15Z" fill="#6C688A"/>
<path fill-rule="evenodd" clip-rule="evenodd" d="M1.75033 11.4467C3.23759 6.97571 7.02824 3.75 12.0009 3.75C16.9711 3.75 20.7612 6.97271 22.2503 11.4405C22.3707 11.8015 22.3705 12.1922 22.2503 12.5533C20.7631 17.0243 16.9717 20.25 11.9991 20.25C7.02881 20.25 3.23943 17.0273 1.75033 12.5595C1.62999 12.1985 1.6302 11.8078 1.75033 11.4467ZM17.0002 12C17.0002 14.8995 14.8997 17 12.0002 17C9.10075 17 7.00024 14.8995 7.00024 12C7.00024 9.1005 9.10084 7 12.0003 7C14.8998 7 17.0002 9.1005 17.0002 12Z" fill="#6C688A"/>
</svg>
