<svg width="16" height="20" viewBox="0 0 16 20" fill="none" xmlns="http://www.w3.org/2000/svg">
<path d="M15.5357 8.57143H9.28571C8.71739 8.57143 8.17235 8.34566 7.77049 7.9438C7.36862 7.54194 7.14286 6.99689 7.14286 6.42857V0.178571C7.14286 0.131211 7.12404 0.085791 7.09056 0.0523024C7.05707 0.0188138 7.01165 0 6.96429 0H2.85714C2.09938 0 1.37266 0.30102 0.836838 0.836838C0.301019 1.37266 0 2.09938 0 2.85714V17.1429C0 17.9006 0.301019 18.6273 0.836838 19.1632C1.37266 19.699 2.09938 20 2.85714 20H12.8571C13.6149 20 14.3416 19.699 14.8774 19.1632C15.4133 18.6273 15.7143 17.9006 15.7143 17.1429V8.75C15.7143 8.70264 15.6955 8.65722 15.662 8.62373C15.6285 8.59024 15.5831 8.57143 15.5357 8.57143Z" fill="url(#paint0_linear_944_18748)"/>
<path d="M15.1439 6.99049L8.72377 0.570398C8.71128 0.557987 8.69541 0.549543 8.67813 0.546129C8.66086 0.542715 8.64297 0.544482 8.6267 0.551209C8.61043 0.557936 8.59652 0.569322 8.5867 0.583936C8.57688 0.59855 8.57161 0.61574 8.57153 0.633344V6.42843C8.57153 6.61787 8.64679 6.79956 8.78074 6.93351C8.9147 7.06746 9.09638 7.14272 9.28582 7.14272H15.0809C15.0985 7.14265 15.1157 7.13737 15.1303 7.12755C15.1449 7.11774 15.1563 7.10382 15.163 7.08755C15.1698 7.07128 15.1715 7.05339 15.1681 7.03612C15.1647 7.01885 15.1563 7.00297 15.1439 6.99049Z" fill="url(#paint1_linear_944_18748)"/>
<defs>
<linearGradient id="paint0_linear_944_18748" x1="0" y1="0" x2="18.3486" y2="2.81227" gradientUnits="userSpaceOnUse">
<stop stop-color="#9C4DF4"/>
<stop offset="1" stop-color="#B071F6"/>
</linearGradient>
<linearGradient id="paint1_linear_944_18748" x1="8.57153" y1="0.544434" x2="16.1679" y2="2.02625" gradientUnits="userSpaceOnUse">
<stop stop-color="#9C4DF4"/>
<stop offset="1" stop-color="#B071F6"/>
</linearGradient>
</defs>
</svg>
