<svg width="21" height="21" viewBox="0 0 21 21" fill="none" xmlns="http://www.w3.org/2000/svg">
<path d="M17.85 0H3.15C2.31457 0 1.51335 0.331874 0.922614 0.922614C0.331874 1.51335 0 2.31457 0 3.15V17.85C0 18.6854 0.331874 19.4866 0.922614 20.0774C1.51335 20.6681 2.31457 21 3.15 21H17.85C18.6854 21 19.4866 20.6681 20.0774 20.0774C20.6681 19.4866 21 18.6854 21 17.85V3.15C21 2.31457 20.6681 1.51335 20.0774 0.922614C19.4866 0.331874 18.6854 0 17.85 0ZM8.4 5.25C8.81534 5.25 9.22135 5.37316 9.5667 5.60391C9.91204 5.83466 10.1812 6.16264 10.3401 6.54636C10.4991 6.93009 10.5407 7.35233 10.4596 7.75969C10.3786 8.16705 10.1786 8.54123 9.88492 8.83492C9.59123 9.12861 9.21705 9.32862 8.80969 9.40965C8.40233 9.49068 7.98009 9.44909 7.59636 9.29015C7.21264 9.1312 6.88466 8.86204 6.65391 8.5167C6.42316 8.17135 6.3 7.76534 6.3 7.35C6.3 6.79305 6.52125 6.2589 6.91508 5.86508C7.3089 5.47125 7.84304 5.25 8.4 5.25ZM5.7645 18.9H3.15C2.92775 18.8962 2.71244 18.822 2.53508 18.688C2.35771 18.554 2.22743 18.3672 2.163 18.1545L5.4075 14.259C5.51209 14.142 5.63981 14.048 5.7826 13.983C5.92538 13.9179 6.08011 13.8832 6.237 13.881C6.39645 13.8842 6.55307 13.9237 6.69497 13.9965C6.83688 14.0693 6.96035 14.1734 7.056 14.301L8.106 15.6975L5.7645 18.9ZM18.9 17.85C18.9 18.1285 18.7894 18.3955 18.5925 18.5925C18.3955 18.7894 18.1285 18.9 17.85 18.9H8.4L14.1435 11.004C14.2326 10.8811 14.3472 10.779 14.4795 10.7047C14.6119 10.6303 14.7587 10.5856 14.91 10.5735C15.0621 10.5609 15.2151 10.5817 15.3583 10.6342C15.5016 10.6868 15.6317 10.77 15.7395 10.878L18.9 14.0805V17.85Z" fill="url(#paint0_linear_944_18774)"/>
<defs>
<linearGradient id="paint0_linear_944_18774" x1="10.5" y1="0" x2="10.5" y2="21" gradientUnits="userSpaceOnUse">
<stop stop-color="#346DFF"/>
<stop offset="1" stop-color="#6C95FF"/>
</linearGradient>
</defs>
</svg>
