<svg width="280" height="85" viewBox="0 0 280 85" fill="none" xmlns="http://www.w3.org/2000/svg">
<path d="M63.6344 28.5009V48.5777C63.6344 56.8836 56.8724 63.6344 48.5631 63.6344H40.1902V48.5736C40.1902 43.9633 36.4324 40.2146 31.8172 40.2146C27.2021 40.2146 23.4443 43.9633 23.4443 48.5736V63.6344H15.0713C6.762 63.6344 0 56.8802 0 48.5777V28.5009C0 23.9208 2.04968 19.6424 5.61991 16.7677L22.3658 3.30191C27.8384 -1.10064 35.786 -1.10064 41.2653 3.30191L58.0112 16.7677C61.5847 19.6424 63.6344 23.9175 63.6344 28.5009Z" fill="url(#paint0_linear_1009_29465)"/>
<g clip-path="url(#clip0_1009_29465)">
<path d="M32.242 65.7366C28.4649 65.7366 24.7726 64.6166 21.632 62.5181C18.4915 60.4197 16.0437 57.4371 14.5982 53.9475C13.1528 50.4579 12.7746 46.618 13.5115 42.9135C14.2484 39.2089 16.0672 35.8061 18.7381 33.1353C21.4089 30.4644 24.8117 28.6456 28.5163 27.9087C32.2208 27.1718 36.0607 27.55 39.5503 28.9955C43.0399 30.4409 46.0225 32.8887 48.121 36.0292C50.2194 39.1698 51.3395 42.8621 51.3395 46.6392C51.3338 51.7024 49.3199 56.5566 45.7397 60.1368C42.1594 63.7171 37.3052 65.7309 32.242 65.7366ZM32.242 70.511C27.0699 70.5087 22.0402 68.8162 17.9189 65.6913V78.8661C17.9189 79.9904 18.2364 81.0917 18.8349 82.0434C19.4335 82.9951 20.2886 83.7583 21.3019 84.2453C22.3152 84.7322 23.4455 84.9231 24.5625 84.7958C25.6795 84.6685 26.7379 84.2283 27.6156 83.5259L31.4972 80.4226C31.7087 80.2537 31.9713 80.1617 32.242 80.1617C32.5127 80.1617 32.7753 80.2537 32.9868 80.4226L36.8684 83.5259C37.7461 84.2283 38.8045 84.6685 39.9215 84.7958C41.0385 84.9231 42.1688 84.7322 43.1821 84.2453C44.1954 83.7583 45.0505 82.9951 45.6491 82.0434C46.2476 81.0917 46.5651 79.9904 46.5651 78.8661V65.6913C42.4436 68.8159 37.414 70.5083 32.242 70.511Z" fill="url(#paint1_linear_1009_29465)"/>
</g>
<rect x="28.3926" y="41.2235" width="6.84088" height="19.6675" rx="3.42044" fill="white"/>
<circle cx="31.813" cy="36.093" r="3.42044" fill="white"/>
<ellipse cx="268.259" cy="51.0571" rx="2.99289" ry="3.84799" fill="#0A033C"/>
<path d="M83.9375 63.4565C82.3186 63.4565 81.0062 62.1441 81.0062 60.5252V41.512C81.0062 39.893 82.3186 38.5806 83.9375 38.5806C85.5565 38.5806 86.8689 39.893 86.8689 41.512V60.5252C86.8689 62.1441 85.5565 63.4565 83.9375 63.4565ZM83.9537 35.05C83.0252 35.05 82.2262 34.7423 81.5568 34.1269C80.8874 33.5007 80.5527 32.7503 80.5527 31.8758C80.5527 30.9904 80.8874 30.24 81.5568 29.6246C82.2262 28.9984 83.0252 28.6853 83.9537 28.6853C84.8931 28.6853 85.692 28.9984 86.3506 29.6246C87.02 30.24 87.3547 30.9904 87.3547 31.8758C87.3547 32.7503 87.02 33.5007 86.3506 34.1269C85.692 34.7423 84.8931 35.05 83.9537 35.05Z" fill="#0A033C"/>
<path d="M93.1567 63.4565V46.8726V33.2929C93.1567 31.6337 94.5017 30.2886 96.1609 30.2886C97.8201 30.2886 99.1651 31.6337 99.1651 33.2929V58.4198H113.773V63.4565H93.1567Z" fill="#0A033C"/>
<path d="M129.742 63.9424C127.248 63.9424 125.094 63.4241 123.28 62.3877C121.477 61.3404 120.089 59.8612 119.118 57.9501C118.146 56.0283 117.66 53.7664 117.66 51.1643C117.66 48.6055 118.146 46.3597 119.118 44.4271C120.1 42.4837 121.471 40.9721 123.231 39.8924C124.991 38.8019 127.059 38.2567 129.434 38.2567C130.967 38.2567 132.414 38.505 133.774 39.0017C135.146 39.4875 136.355 40.2433 137.402 41.269C138.46 42.2947 139.292 43.6011 139.896 45.1883C140.501 46.7646 140.803 48.6433 140.803 50.8242V52.6219H120.413V48.6703H135.183C135.173 47.5474 134.93 46.5487 134.455 45.6741C133.98 44.7888 133.316 44.0924 132.463 43.5849C131.62 43.0775 130.638 42.8238 129.515 42.8238C128.317 42.8238 127.264 43.1153 126.357 43.6983C125.45 44.2705 124.743 45.0263 124.235 45.9657C123.739 46.8942 123.485 47.9145 123.474 49.0266V52.4762C123.474 53.9229 123.739 55.1646 124.268 56.2011C124.797 57.2268 125.536 58.0149 126.487 58.5656C127.437 59.1054 128.549 59.3753 129.823 59.3753C130.676 59.3753 131.448 59.2566 132.139 59.019C132.83 58.7707 133.429 58.409 133.936 57.934C134.444 57.4589 134.827 56.8705 135.086 56.1687L140.56 56.7841C140.215 58.2309 139.556 59.4941 138.584 60.5738C137.624 61.6427 136.393 62.474 134.892 63.0679C133.391 63.6509 131.674 63.9424 129.742 63.9424Z" fill="#0A033C"/>
<path d="M152.921 63.9586C151.345 63.9586 149.925 63.6779 148.662 63.1164C147.409 62.5442 146.416 61.7021 145.682 60.59C144.959 59.4779 144.597 58.1067 144.597 56.4764C144.597 55.0728 144.856 53.9121 145.374 52.9944C145.893 52.0767 146.6 51.3425 147.496 50.7918C148.392 50.2412 149.402 49.8255 150.524 49.5448C151.658 49.2533 152.83 49.0428 154.039 48.9132C155.496 48.762 156.679 48.6271 157.586 48.5083C158.492 48.3787 159.151 48.1844 159.561 47.9253C159.982 47.6554 160.193 47.2397 160.193 46.6782V46.5811C160.193 45.361 159.831 44.4163 159.108 43.7469C158.384 43.0775 157.343 42.7428 155.982 42.7428C154.546 42.7428 153.407 43.0559 152.565 43.6821C152.425 43.7872 152.294 43.8955 152.169 44.007C151.169 44.9043 149.918 45.7642 148.587 45.5752C146.906 45.3364 145.783 43.6122 146.781 42.238C147.014 41.9174 147.268 41.616 147.544 41.3338C148.538 40.3081 149.752 39.5415 151.188 39.0341C152.624 38.5158 154.212 38.2567 155.95 38.2567C157.148 38.2567 158.341 38.3971 159.529 38.6778C160.717 38.9585 161.802 39.4228 162.784 40.0706C163.767 40.7076 164.555 41.5767 165.149 42.678C165.753 43.7793 166.056 45.1559 166.056 46.8078V63.4565H160.42V60.0393H160.225C159.869 60.7303 159.367 61.3781 158.719 61.9828C158.082 62.5766 157.278 63.0571 156.306 63.4241C155.345 63.7804 154.217 63.9586 152.921 63.9586ZM154.444 59.6507C155.62 59.6507 156.641 59.4185 157.505 58.9543C158.368 58.4792 159.032 57.853 159.497 57.0756C159.972 56.2982 160.209 55.4507 160.209 54.5329V51.6016C160.026 51.7528 159.712 51.8931 159.27 52.0227C158.838 52.1522 158.352 52.2656 157.812 52.3628C157.272 52.46 156.738 52.5463 156.209 52.6219C155.68 52.6975 155.221 52.7623 154.832 52.8162C153.958 52.935 153.175 53.1294 152.484 53.3993C151.793 53.6692 151.248 54.0471 150.848 54.5329C150.449 55.008 150.249 55.6234 150.249 56.3792C150.249 57.4589 150.643 58.2741 151.431 58.8247C152.219 59.3753 153.224 59.6507 154.444 59.6507Z" fill="#0A033C"/>
<path d="M171.951 63.4565V41.4229C171.951 39.8531 173.223 38.5806 174.793 38.5806C176.363 38.5806 177.635 39.8531 177.635 41.4229V42.7266H177.894C178.348 41.2906 179.125 40.1839 180.227 39.4066C181.339 38.6184 182.607 38.2243 184.032 38.2243C184.356 38.2243 184.718 38.2405 185.117 38.2729C185.528 38.2945 185.868 38.3323 186.138 38.3863V43.7793C185.889 43.6929 185.495 43.6173 184.956 43.5526C184.426 43.477 183.914 43.4392 183.417 43.4392C182.348 43.4392 181.387 43.6713 180.534 44.1356C179.692 44.5891 179.028 45.2207 178.542 46.0304C178.056 46.8402 177.813 47.7741 177.813 48.8322V63.4565H171.951Z" fill="#0A033C"/>
<path d="M195.895 48.8808V63.4565H190.033V41.3824C190.033 39.835 191.287 38.5806 192.835 38.5806C194.382 38.5806 195.636 39.835 195.636 41.3824V42.8076H195.928C196.5 41.4148 197.412 40.3081 198.665 39.4875C199.928 38.667 201.488 38.2567 203.345 38.2567C205.062 38.2567 206.557 38.6238 207.831 39.358C209.116 40.0922 210.109 41.1557 210.811 42.5484C211.524 43.9412 211.875 45.631 211.864 47.6176V63.4565H206.001V48.5245C206.001 46.8618 205.569 45.5608 204.706 44.6214C203.853 43.6821 202.67 43.2125 201.159 43.2125C200.133 43.2125 199.221 43.4392 198.422 43.8927C197.634 44.3353 197.013 44.9777 196.559 45.8199C196.117 46.662 195.895 47.6824 195.895 48.8808Z" fill="#0A033C"/>
<path d="M220.755 63.4565C219.136 63.4565 217.824 62.1441 217.824 60.5252V41.512C217.824 39.893 219.136 38.5806 220.755 38.5806C222.374 38.5806 223.686 39.893 223.686 41.512V60.5252C223.686 62.1441 222.374 63.4565 220.755 63.4565ZM220.771 35.05C219.843 35.05 219.044 34.7423 218.374 34.1269C217.705 33.5007 217.37 32.7503 217.37 31.8758C217.37 30.9904 217.705 30.24 218.374 29.6246C219.044 28.9984 219.843 28.6853 220.771 28.6853C221.711 28.6853 222.51 28.9984 223.168 29.6246C223.838 30.24 224.172 30.9904 224.172 31.8758C224.172 32.7503 223.838 33.5007 223.168 34.1269C222.51 34.7423 221.711 35.05 220.771 35.05Z" fill="#0A033C"/>
<path d="M235.578 48.8808V63.4565H229.715V41.3824C229.715 39.835 230.97 38.5806 232.517 38.5806C234.064 38.5806 235.319 39.835 235.319 41.3824V42.8076H235.61C236.182 41.4148 237.095 40.3081 238.347 39.4875C239.61 38.667 241.171 38.2567 243.028 38.2567C244.744 38.2567 246.24 38.6238 247.514 39.358C248.799 40.0922 249.792 41.1557 250.494 42.5484C251.206 43.9412 251.557 45.631 251.546 47.6176V63.4565H245.684V48.5245C245.684 46.8618 245.252 45.5608 244.388 44.6214C243.535 43.6821 242.353 43.2125 240.841 43.2125C239.816 43.2125 238.903 43.4392 238.104 43.8927C237.316 44.3353 236.695 44.9777 236.242 45.8199C235.799 46.662 235.578 47.6824 235.578 48.8808Z" fill="#0A033C"/>
<path d="M268.325 73.3033C266.219 73.3033 264.411 73.0171 262.899 72.4449C261.388 71.8835 260.173 71.1277 259.255 70.1776C258.338 69.2275 257.701 68.1748 257.344 67.0195L262.624 65.7401C262.861 66.2259 263.207 66.7064 263.66 67.1814C264.114 67.6673 264.724 68.0668 265.491 68.3799C266.268 68.7038 267.245 68.8658 268.422 68.8658C270.085 68.8658 271.461 68.4609 272.552 67.6511C273.642 66.8521 274.187 65.5349 274.187 63.6995V58.9866H273.896C273.594 59.5913 273.151 60.2121 272.568 60.8491C271.996 61.4861 271.234 62.0206 270.284 62.4524C269.345 62.8843 268.163 63.1002 266.738 63.1002C264.827 63.1002 263.094 62.6522 261.539 61.756C259.995 60.8491 258.764 59.4995 257.846 57.7072C256.939 55.9041 256.486 53.6476 256.486 50.9376C256.486 48.206 256.939 45.9009 257.846 44.0222C258.764 42.1328 260 40.7022 261.555 39.7305C263.11 38.748 264.843 38.2567 266.754 38.2567C268.211 38.2567 269.41 38.505 270.349 39.0017C271.299 39.4875 272.055 40.076 272.616 40.767C273.178 41.4472 273.604 42.0896 273.896 42.6942H274.22V38.5806H280.001V63.8614C280.001 65.9884 279.494 67.7483 278.479 69.1411C277.464 70.5339 276.077 71.5758 274.317 72.2668C272.557 72.9578 270.56 73.3033 268.325 73.3033ZM268.373 58.5008C269.615 58.5008 270.673 58.1985 271.548 57.5939C272.422 56.9892 273.086 56.1201 273.54 54.9864C273.993 53.8527 274.22 52.4923 274.22 50.9052C274.22 49.3397 273.993 47.9685 273.54 46.7916C273.097 45.6148 272.438 44.7024 271.564 44.0546C270.7 43.396 269.637 43.0667 268.373 43.0667C267.067 43.0667 265.976 43.4068 265.102 44.087C264.227 44.7672 263.569 45.7011 263.126 46.8888C262.683 48.0656 262.462 49.4044 262.462 50.9052C262.462 52.4276 262.683 53.761 263.126 54.9054C263.579 56.0391 264.243 56.9244 265.118 57.5615C266.003 58.1877 267.088 58.5008 268.373 58.5008Z" fill="#0A033C"/>
<defs>
<linearGradient id="paint0_linear_1009_29465" x1="0" y1="0" x2="73.2599" y2="14.2908" gradientUnits="userSpaceOnUse">
<stop stop-color="#9C4DF4"/>
<stop offset="1" stop-color="#B071F6"/>
</linearGradient>
<linearGradient id="paint1_linear_1009_29465" x1="24.3605" y1="27.5417" x2="56.8244" y2="74.5584" gradientUnits="userSpaceOnUse">
<stop stop-color="#FFA093"/>
<stop offset="1" stop-color="#FF6652"/>
</linearGradient>
<clipPath id="clip0_1009_29465">
<rect width="57.2924" height="57.2924" fill="white" transform="translate(3.59766 27.5417)"/>
</clipPath>
</defs>
</svg>
