<svg width="24" height="24" viewBox="0 0 24 24" fill="none" xmlns="http://www.w3.org/2000/svg">
<path opacity="0.4" d="M23.6667 12.0002C23.6667 15.5158 22.1117 18.6682 19.652 20.8071C17.6036 22.5884 14.9277 23.6668 12 23.6668C9.07227 23.6668 6.39643 22.5884 4.34803 20.8071C1.88832 18.6682 0.333333 15.5158 0.333333 12.0002C0.333333 5.55684 5.55668 0.333496 12 0.333496C18.4433 0.333496 23.6667 5.55684 23.6667 12.0002Z" fill="#FF6652"/>
<path d="M19.652 20.807C18.493 17.7071 15.5042 15.5 12 15.5C8.49577 15.5 5.50703 17.7071 4.34802 20.807C6.39642 22.5882 9.07227 23.6667 12 23.6667C14.9277 23.6667 17.6036 22.5882 19.652 20.807Z" fill="#FF6652"/>
<circle cx="3.5" cy="3.5" r="3.5" transform="matrix(1 0 0 -1 8.5 13.167)" fill="#FF6652"/>
</svg>
