<svg width="80" height="80" viewBox="0 0 80 80" fill="none" xmlns="http://www.w3.org/2000/svg">
<path d="M40 80C62.0914 80 80 62.0914 80 40C80 17.9086 62.0914 0 40 0C17.9086 0 0 17.9086 0 40C0 62.0914 17.9086 80 40 80Z" fill="url(#paint0_linear_2327_21241)"/>
<circle cx="40" cy="40" r="40" fill="#518EF8" fill-opacity="0.1"/>
<path d="M46.8055 23H34.1945C28.569 23 24 27.569 24 33.1945V45.8055C24 51.431 28.569 56 34.1945 56H46.8055C52.431 56 57 51.431 57 45.8055V33.1945C57 27.569 52.431 23 46.8055 23ZM53.3157 45.8187C53.3157 49.4106 50.3974 52.3421 46.7923 52.3421H34.1813C30.5894 52.3421 27.6579 49.4238 27.6579 45.8187V33.2077C27.6579 29.6158 30.5762 26.6843 34.1813 26.6843H46.7923C50.3842 26.6843 53.3157 29.6026 53.3157 33.2077V45.8187Z" fill="white"/>
<path d="M40.4929 31.0686C35.8446 31.0686 32.0547 34.8585 32.0547 39.5068C32.0547 44.155 35.8446 47.945 40.4929 47.945C45.1411 47.945 48.931 44.155 48.931 39.5068C48.931 34.8585 45.1411 31.0686 40.4929 31.0686ZM40.4929 44.6304C37.6669 44.6304 35.3692 42.3327 35.3692 39.5068C35.3692 36.6808 37.6669 34.3831 40.4929 34.3831C43.3188 34.3831 45.6165 36.6808 45.6165 39.5068C45.6165 42.3327 43.3188 44.6304 40.4929 44.6304Z" fill="white"/>
<path d="M49.5751 31.9932C50.3525 31.8666 50.8801 31.1338 50.7535 30.3564C50.6269 29.5789 49.894 29.0514 49.1166 29.178C48.3392 29.3046 47.8116 30.0374 47.9382 30.8149C48.0648 31.5923 48.7977 32.1198 49.5751 31.9932Z" fill="white"/>
<defs>
<linearGradient id="paint0_linear_2327_21241" x1="9.54293" y1="70.4571" x2="66.3874" y2="13.6126" gradientUnits="userSpaceOnUse">
<stop stop-color="#FEE411"/>
<stop offset="0.052" stop-color="#FEDB16"/>
<stop offset="0.138" stop-color="#FEC125"/>
<stop offset="0.248" stop-color="#FE983D"/>
<stop offset="0.376" stop-color="#FE5F5E"/>
<stop offset="0.5" stop-color="#FE2181"/>
<stop offset="1" stop-color="#9000DC"/>
</linearGradient>
</defs>
</svg>
