<svg width="80" height="80" viewBox="0 0 80 80" fill="none" xmlns="http://www.w3.org/2000/svg">
<circle cx="40" cy="40" r="40" fill="#007AB9"/>
<g clip-path="url(#clip0_2327_21240)">
<path d="M40 72C57.1208 72 71 58.1208 71 41C71 23.8792 57.1208 10 40 10C22.8792 10 9 23.8792 9 41C9 58.1208 22.8792 72 40 72Z" fill="#007AB9"/>
<path d="M58.5213 43.4946V56.2753H51.1115V44.3512C51.1115 41.3572 50.0416 39.3125 47.3587 39.3125C45.3113 39.3125 44.095 40.689 43.5579 42.0219C43.3628 42.4983 43.3126 43.1597 43.3126 43.8278V56.2747H35.9021C35.9021 56.2747 36.0016 36.0792 35.9021 33.9887H43.3131V37.1469C43.2982 37.1717 43.2772 37.196 43.2639 37.2198H43.3131V37.1469C44.2978 35.6316 46.054 33.4654 49.9913 33.4654C54.8664 33.4654 58.5213 36.6506 58.5213 43.4946ZM28.1502 23.2461C25.6154 23.2461 23.957 24.91 23.957 27.0961C23.957 29.2358 25.5673 30.9477 28.0529 30.9477H28.101C30.6855 30.9477 32.2925 29.2358 32.2925 27.0961C32.2433 24.91 30.6855 23.2461 28.1502 23.2461ZM24.3975 56.2753H31.8051V33.9887H24.3975V56.2753Z" fill="#F1F2F2"/>
</g>
<defs>
<clipPath id="clip0_2327_21240">
<rect width="62" height="62" fill="white" transform="translate(9 10)"/>
</clipPath>
</defs>
</svg>
