<svg width="46" height="46" viewBox="0 0 46 46" fill="none" xmlns="http://www.w3.org/2000/svg">
<circle cx="23" cy="23" r="23" fill="#F79E1B" fill-opacity="0.05"/>
<circle cx="23" cy="23" r="22.75" stroke="#F79E1B" stroke-opacity="0.15" stroke-width="0.5"/>
<path d="M34.7686 27.353V27.0569H34.6936L34.6068 27.2601L34.5206 27.0569H34.4453V27.353H34.4986V27.1299L34.5797 27.3224H34.6349L34.716 27.1294V27.353H34.7688H34.7686ZM34.2928 27.353V27.1076H34.3888V27.0576H34.1436V27.1076H34.2395V27.353H34.2923H34.2928Z" fill="#F79410"/>
<path d="M26.2449 28.6228H19.7554V16.6304H26.245L26.2449 28.6228Z" fill="#FF5F00"/>
<path d="M20.1669 22.6269C20.1669 20.1942 21.2746 18.0272 22.9995 16.6307C21.6939 15.572 20.0789 14.9975 18.4162 15C14.3202 15 11 18.4146 11 22.6269C11 26.8392 14.3202 30.2538 18.4162 30.2538C20.079 30.2564 21.694 29.6818 22.9997 28.6231C21.2749 27.2268 20.1669 25.0597 20.1669 22.6269Z" fill="#EB001B"/>
<path d="M34.9998 22.6269C34.9998 26.8392 31.6795 30.2538 27.5836 30.2538C25.9206 30.2563 24.3055 29.6818 22.9995 28.6231C24.7249 27.2266 25.8326 25.0597 25.8326 22.6269C25.8326 20.1941 24.7249 18.0272 22.9995 16.6307C24.3054 15.5721 25.9205 14.9975 27.5834 15C31.6794 15 34.9996 18.4146 34.9996 22.6269" fill="#F79E1B"/>
</svg>
