<svg width="80" height="20" viewBox="0 0 80 20" fill="none" xmlns="http://www.w3.org/2000/svg">
<path d="M29.8128 4.09033H25.4006C25.2545 4.09025 25.1132 4.13917 25.0022 4.22828C24.8911 4.3174 24.8175 4.44085 24.7948 4.57639L23.0103 15.2049C23.0021 15.2542 23.0053 15.3046 23.0199 15.3526C23.0344 15.4006 23.0598 15.4451 23.0944 15.483C23.129 15.5209 23.1719 15.5513 23.2202 15.5722C23.2685 15.593 23.321 15.6037 23.3741 15.6037H25.4806C25.6268 15.6037 25.7681 15.5547 25.8792 15.4655C25.9903 15.3762 26.0638 15.2527 26.0864 15.117L26.5677 12.2503C26.5903 12.1148 26.6637 11.9913 26.7746 11.902C26.8856 11.8128 27.0268 11.7637 27.1728 11.7637H28.5696C31.4761 11.7637 33.1535 10.4425 33.5916 7.82427C33.789 6.67882 33.5999 5.77882 33.029 5.14851C32.4019 4.45639 31.2896 4.09033 29.8128 4.09033ZM30.3219 7.97215C30.0806 9.45942 28.8709 9.45942 27.7012 9.45942H27.0354L27.5025 6.68185C27.5162 6.60059 27.5603 6.52658 27.6269 6.47314C27.6935 6.4197 27.7782 6.39033 27.8658 6.39033H28.1709C28.9677 6.39033 29.7193 6.39033 30.1077 6.817C30.3393 7.07154 30.4103 7.44973 30.3219 7.97215ZM43.0019 7.92427H40.889C40.8014 7.92427 40.7167 7.95364 40.6501 8.00708C40.5835 8.06052 40.5394 8.13452 40.5257 8.21579L40.4322 8.77094L40.2845 8.56973C39.827 7.94609 38.807 7.7376 37.789 7.7376C35.4541 7.7376 33.4599 9.39882 33.0716 11.7291C32.8696 12.8915 33.1567 14.0031 33.8587 14.7782C34.5025 15.4909 35.4238 15.7879 36.5199 15.7879C38.4012 15.7879 39.4445 14.6515 39.4445 14.6515L39.3503 15.2031C39.3419 15.2524 39.345 15.3028 39.3593 15.3509C39.3737 15.399 39.3989 15.4435 39.4334 15.4816C39.4679 15.5196 39.5107 15.5501 39.5589 15.5711C39.6072 15.5921 39.6597 15.603 39.7128 15.6031H41.6161C41.7622 15.6031 41.9036 15.5541 42.0147 15.4649C42.1258 15.3756 42.1993 15.252 42.2219 15.1164L43.3638 8.32306C43.3722 8.27386 43.3692 8.22353 43.3548 8.17555C43.3405 8.12758 43.3153 8.08309 43.2808 8.04517C43.2464 8.00725 43.2037 7.97681 43.1555 7.95593C43.1073 7.93506 43.0549 7.92426 43.0019 7.92427ZM40.0567 11.7873C39.8528 12.9212 38.8948 13.6825 37.6728 13.6825C37.0593 13.6825 36.569 13.4976 36.2541 13.1473C35.9419 12.7994 35.8232 12.3043 35.9225 11.7528C36.1128 10.6285 37.087 9.84245 38.2903 9.84245C38.8903 9.84245 39.378 10.0297 39.6993 10.3831C40.0212 10.74 40.149 11.2382 40.0567 11.7873ZM54.2548 7.92427H52.1316C52.0314 7.92442 51.9328 7.94752 51.8444 7.99156C51.7559 8.0356 51.6802 8.09925 51.6238 8.177L48.6954 12.2291L47.4541 8.33518C47.416 8.21642 47.3382 8.11233 47.2323 8.03833C47.1263 7.96432 46.9978 7.92433 46.8657 7.92427H44.7793C44.7207 7.92412 44.663 7.93712 44.6108 7.96218C44.5587 7.98724 44.5137 8.02363 44.4795 8.06833C44.4454 8.11304 44.4231 8.16475 44.4145 8.21918C44.406 8.27361 44.4114 8.32917 44.4303 8.38124L46.769 14.8285L44.5703 17.7443C44.5312 17.796 44.508 17.8568 44.5033 17.92C44.4985 17.9833 44.5124 18.0465 44.5434 18.1028C44.5744 18.1592 44.6213 18.2064 44.6789 18.2394C44.7366 18.2723 44.8028 18.2898 44.8703 18.2897H46.9909C47.0899 18.2899 47.1875 18.2674 47.2752 18.2244C47.363 18.1813 47.4383 18.1189 47.4948 18.0425L54.5567 8.4667C54.595 8.41489 54.6174 8.35423 54.6216 8.29129C54.6258 8.22835 54.6116 8.16553 54.5805 8.10965C54.5494 8.05377 54.5026 8.00695 54.4452 7.97427C54.3877 7.94159 54.3219 7.9243 54.2548 7.92427Z" fill="#253B80"/>
<path d="M61.2856 4.09045H56.8727C56.7268 4.09051 56.5856 4.1395 56.4747 4.2286C56.3637 4.3177 56.2903 4.44107 56.2675 4.57651L54.483 15.205C54.4747 15.2542 54.4779 15.3046 54.4923 15.3525C54.5067 15.4005 54.532 15.445 54.5665 15.4829C54.6009 15.5208 54.6437 15.5512 54.6919 15.5721C54.7401 15.593 54.7926 15.6038 54.8456 15.6038H57.1101C57.2123 15.6036 57.311 15.5693 57.3886 15.5068C57.4662 15.4444 57.5175 15.358 57.5334 15.2632L58.0398 12.2504C58.0624 12.1149 58.1358 11.9914 58.2467 11.9022C58.3577 11.8129 58.4989 11.7639 58.645 11.7638H60.0411C62.9482 11.7638 64.625 10.4426 65.0637 7.82439C65.2617 6.67893 65.0714 5.77893 64.5005 5.14863C63.874 4.45651 62.7624 4.09045 61.2856 4.09045ZM61.7946 7.97227C61.554 9.45954 60.3443 9.45954 59.174 9.45954H58.5088L58.9766 6.68196C58.99 6.6007 59.0339 6.52663 59.1004 6.47316C59.1669 6.41969 59.2516 6.39035 59.3392 6.39045H59.6443C60.4405 6.39045 61.1927 6.39045 61.5811 6.81712C61.8127 7.07166 61.883 7.44984 61.7946 7.97227ZM74.474 7.92439H72.3624C72.2748 7.92416 72.1901 7.95346 72.1235 8.00695C72.057 8.06045 72.0131 8.13459 71.9998 8.2159L71.9063 8.77106L71.7579 8.56984C71.3005 7.94621 70.2811 7.73772 69.263 7.73772C66.9282 7.73772 64.9346 9.39894 64.5463 11.7292C64.345 12.8917 64.6308 14.0032 65.3327 14.7783C65.9779 15.4911 66.8979 15.788 67.994 15.788C69.8753 15.788 70.9185 14.6517 70.9185 14.6517L70.8243 15.2032C70.8159 15.2526 70.819 15.3031 70.8335 15.3513C70.8479 15.3995 70.8733 15.4441 70.9079 15.4821C70.9425 15.5202 70.9855 15.5507 71.0339 15.5716C71.0823 15.5925 71.1349 15.6033 71.1882 15.6032H73.0908C73.2368 15.6031 73.3781 15.554 73.489 15.4648C73.6 15.3756 73.6733 15.2521 73.6959 15.1165L74.8385 8.32318C74.8466 8.27382 74.8433 8.22341 74.8287 8.17539C74.8141 8.12737 74.7886 8.08289 74.7539 8.04501C74.7193 8.00712 74.6763 7.97672 74.628 7.9559C74.5797 7.93508 74.5272 7.92433 74.474 7.92439ZM71.5288 11.7874C71.3263 12.9214 70.3669 13.6826 69.145 13.6826C68.5327 13.6826 68.0411 13.4977 67.7263 13.1474C67.414 12.7995 67.2966 12.3044 67.3947 11.7529C67.5863 10.6286 68.5592 9.84257 69.7624 9.84257C70.3624 9.84257 70.8501 10.0298 71.1714 10.3832C71.4947 10.7401 71.6224 11.2383 71.5288 11.7874ZM76.965 4.38196L75.154 15.205C75.1457 15.2542 75.1489 15.3046 75.1633 15.3525C75.1777 15.4005 75.203 15.445 75.2374 15.4829C75.2719 15.5208 75.3147 15.5512 75.3629 15.5721C75.4111 15.593 75.4635 15.6038 75.5166 15.6038H77.3372C77.6398 15.6038 77.8966 15.3977 77.943 15.1171L79.7289 4.48924C79.7371 4.43997 79.734 4.38961 79.7196 4.3416C79.7052 4.29359 79.6799 4.24909 79.6454 4.21114C79.611 4.17319 79.5682 4.14269 79.52 4.12176C79.4718 4.10082 79.4194 4.08993 79.3663 4.08984H77.3276C77.24 4.09013 77.1555 4.11969 77.089 4.17322C77.0226 4.22675 76.9786 4.30075 76.965 4.38196Z" fill="#179BD7"/>
<path d="M4.68877 17.6691L5.02619 15.6558L4.27458 15.6394H0.685547L3.17974 0.783032C3.18717 0.737639 3.21171 0.696265 3.24889 0.66645C3.28608 0.636635 3.33343 0.620366 3.38232 0.620608H9.43393C11.443 0.620608 12.8294 1.01334 13.5533 1.78849C13.8926 2.15212 14.1088 2.53212 14.2133 2.95031C14.323 3.38909 14.3249 3.91334 14.2178 4.55273L14.2101 4.5994V5.00909L14.5494 5.1897C14.8085 5.313 15.0414 5.47978 15.2365 5.68182C15.5268 5.99273 15.7146 6.38788 15.7939 6.85637C15.8759 7.33818 15.8488 7.91152 15.7146 8.56061C15.5597 9.30728 15.3094 9.95758 14.9714 10.4897C14.6731 10.9664 14.272 11.3793 13.7939 11.7018C13.3449 12.0012 12.8114 12.2285 12.2081 12.3739C11.6236 12.517 10.9572 12.5891 10.2262 12.5891H9.75522C9.41845 12.5891 9.09135 12.703 8.83458 12.9073C8.57817 13.1137 8.40807 13.3989 8.35458 13.7121L8.31909 13.8933L7.72297 17.4418L7.69587 17.5721C7.68877 17.6133 7.67651 17.6339 7.65845 17.6479C7.64095 17.6613 7.61912 17.6688 7.59651 17.6691H4.68877Z" fill="#253B80"/>
<path d="M14.8694 4.64648C14.8513 4.75497 14.8307 4.86588 14.8074 4.97982C14.0094 8.82891 11.2791 10.1586 7.79196 10.1586H6.01648C5.59002 10.1586 5.23067 10.4495 5.16422 10.8447L4.25519 16.2604L3.99777 17.7956C3.98751 17.8565 3.99143 17.9187 4.00924 17.9781C4.02706 18.0374 4.05835 18.0924 4.10096 18.1393C4.14358 18.1862 4.1965 18.2238 4.25609 18.2497C4.31568 18.2755 4.38053 18.2889 4.44615 18.2889H7.59519C7.96809 18.2889 8.28486 18.0344 8.34357 17.6889L8.37454 17.5386L8.96744 14.0041L9.00551 13.8101C9.06357 13.4635 9.38099 13.2089 9.75389 13.2089H10.2249C13.2758 13.2089 15.6642 12.0453 16.3623 8.678C16.6539 7.27133 16.5029 6.09679 15.7313 5.27073C15.4868 5.01519 15.1947 4.80365 14.8694 4.64648Z" fill="#179BD7"/>
<path d="M14.0344 4.33425C13.7796 4.265 13.5203 4.21095 13.2583 4.17243C12.7404 4.09767 12.217 4.0618 11.6931 4.06516H6.94987C6.76936 4.06503 6.59475 4.12556 6.45761 4.23583C6.32047 4.34609 6.22985 4.49881 6.20213 4.66637L5.19309 10.67L5.16406 10.8452C5.1955 10.654 5.29871 10.4798 5.45503 10.354C5.61135 10.2281 5.81046 10.159 6.01632 10.1591H7.7918C11.2789 10.1591 14.0092 8.82879 14.8073 4.98031C14.8312 4.86637 14.8512 4.75546 14.8692 4.64698C14.6586 4.54324 14.4392 4.45626 14.2131 4.38698C14.1538 4.3685 14.0942 4.35092 14.0344 4.33425Z" fill="#222D65"/>
<path d="M6.20252 4.66606C6.23001 4.49845 6.32058 4.34567 6.45779 4.23546C6.595 4.12525 6.76974 4.06493 6.95026 4.06545H11.6935C12.2554 4.06545 12.7799 4.1 13.2587 4.17273C13.5826 4.22055 13.9021 4.29208 14.2141 4.38667C14.4496 4.46 14.6683 4.54667 14.8703 4.64667C15.1077 3.22424 14.8683 2.25576 14.0496 1.37879C13.147 0.413333 11.518 0 9.43349 0H3.38188C2.95607 0 2.59285 0.290909 2.52704 0.686667L0.00639336 15.6958C-0.00534738 15.7654 -0.000880429 15.8367 0.0194869 15.9046C0.0398543 15.9725 0.0756388 16.0355 0.124379 16.0891C0.173119 16.1428 0.233657 16.1859 0.301831 16.2155C0.370004 16.2451 0.444194 16.2605 0.519297 16.2606H4.25543L5.19349 10.6697L6.20252 4.66606Z" fill="#253B80"/>
</svg>
