<svg width="64" height="64" viewBox="0 0 64 64" fill="none" xmlns="http://www.w3.org/2000/svg">
<rect width="64" height="64" rx="32" fill="#FF6652"/>
<path d="M30.9337 40.8889H27.7337C26.1693 40.8889 24.8893 42.1689 24.8893 43.7333V44.0889H23.4671C22.8839 44.0889 22.4004 44.5724 22.4004 45.1555C22.4004 45.7387 22.8839 46.2222 23.4671 46.2222H40.5337C41.1168 46.2222 41.6004 45.7387 41.6004 45.1555C41.6004 44.5724 41.1168 44.0889 40.5337 44.0889H39.1115V43.7333C39.1115 42.1689 37.8315 40.8889 36.2671 40.8889H33.0671V37.632C32.7115 37.6747 32.3559 37.6889 32.0004 37.6889C31.6448 37.6889 31.2893 37.6747 30.9337 37.632V40.8889Z" fill="white"/>
<path d="M41.2158 31.488C42.1544 31.1325 42.9793 30.5494 43.6336 29.8951C44.9562 28.4302 45.8238 26.6809 45.8238 24.6329C45.8238 22.5849 44.2167 20.9778 42.1687 20.9778H41.3722C40.4478 19.0862 38.5136 17.7778 36.2664 17.7778H27.7331C25.486 17.7778 23.5518 19.0862 22.6273 20.9778H21.8309C19.7829 20.9778 18.1758 22.5849 18.1758 24.6329C18.1758 26.6809 19.0433 28.4302 20.366 29.8951C21.0202 30.5494 21.8451 31.1325 22.7838 31.488C24.2629 35.1289 27.8184 37.6889 31.9998 37.6889C36.1811 37.6889 39.7367 35.1289 41.2158 31.488ZM36.0389 26.9511L35.1571 28.032C35.0149 28.1885 34.9153 28.5014 34.9296 28.7147L35.0149 30.1085C35.0718 30.9618 34.4602 31.4027 33.6638 31.0898L32.3696 30.5778C32.1704 30.5067 31.8291 30.5067 31.63 30.5778L30.3358 31.0898C29.5393 31.4027 28.9278 30.9618 28.9847 30.1085L29.07 28.7147C29.0842 28.5014 28.9847 28.1885 28.8424 28.032L27.9607 26.9511C27.406 26.2969 27.6478 25.5716 28.4727 25.3582L29.8238 25.0169C30.0371 24.96 30.2931 24.7609 30.4069 24.576L31.1607 23.4098C31.63 22.6845 32.3696 22.6845 32.8389 23.4098L33.5927 24.576C33.7064 24.7609 33.9624 24.96 34.1758 25.0169L35.5269 25.3582C36.3518 25.5716 36.5936 26.2969 36.0389 26.9511Z" fill="white"/>
</svg>
