<svg width="55" height="23" viewBox="0 0 55 23" fill="none" xmlns="http://www.w3.org/2000/svg">
<path fill-rule="evenodd" clip-rule="evenodd" d="M54.6479 11.4798C54.6479 7.68297 52.7656 4.68701 49.1679 4.68701C45.5551 4.68701 43.3691 7.68297 43.3691 11.4502C43.3691 15.9144 45.9497 18.1688 49.6537 18.1688C51.4601 18.1688 52.8263 17.7684 53.8585 17.2048V14.2385C52.8263 14.7427 51.6423 15.0542 50.1394 15.0542C48.667 15.0542 47.3615 14.5499 47.1945 12.7998H54.6175C54.6175 12.607 54.6479 11.8358 54.6479 11.4798ZM47.149 10.0708C47.149 8.39488 48.1964 7.6978 49.1527 7.6978C50.0787 7.6978 51.0654 8.39488 51.0654 10.0708H47.149Z" fill="#32325D"/>
<path fill-rule="evenodd" clip-rule="evenodd" d="M37.5103 4.68701C36.0226 4.68701 35.0663 5.36926 34.535 5.84387L34.3377 4.92431H30.998V22.2178L34.7931 21.4317L34.8082 17.2344C35.3547 17.62 36.1593 18.1688 37.4951 18.1688C40.2123 18.1688 42.6867 16.0331 42.6867 11.3315C42.6715 7.03038 40.1668 4.68701 37.5103 4.68701ZM36.5995 14.9059C35.7039 14.9059 35.1725 14.5944 34.8082 14.2088L34.7931 8.70634C35.1877 8.27622 35.7342 7.9796 36.5995 7.9796C37.9809 7.9796 38.9372 9.4924 38.9372 11.4353C38.9372 13.4227 37.996 14.9059 36.5995 14.9059Z" fill="#32325D"/>
<path fill-rule="evenodd" clip-rule="evenodd" d="M25.7754 3.81169L29.5856 3.01079V0L25.7754 0.786068V3.81169Z" fill="#32325D"/>
<path d="M29.5856 4.93896H25.7754V17.9165H29.5856V4.93896Z" fill="#32325D"/>
<path fill-rule="evenodd" clip-rule="evenodd" d="M21.6917 6.03648L21.4488 4.93895H18.1699V17.9165H21.9649V9.12142C22.8606 7.9794 24.3786 8.18704 24.8491 8.35019V4.93895C24.3634 4.76097 22.5873 4.43468 21.6917 6.03648Z" fill="#32325D"/>
<path fill-rule="evenodd" clip-rule="evenodd" d="M14.1019 1.7207L10.398 2.49194L10.3828 14.3719C10.3828 16.567 12.0678 18.1836 14.3144 18.1836C15.5592 18.1836 16.47 17.9612 16.9709 17.6942V14.6834C16.4852 14.8762 14.0867 15.5585 14.0867 13.3634V8.09823H16.9709V4.93913H14.0867L14.1019 1.7207Z" fill="#32325D"/>
<path fill-rule="evenodd" clip-rule="evenodd" d="M3.84055 8.70634C3.84055 8.12791 4.32631 7.90544 5.13085 7.90544C6.28454 7.90544 7.74182 8.24656 8.8955 8.85465V5.36926C7.63556 4.87982 6.3908 4.68701 5.13085 4.68701C2.04931 4.68701 0 6.25915 0 8.88431C0 12.9778 5.76841 12.3252 5.76841 14.0902C5.76841 14.7724 5.16121 14.9949 4.31113 14.9949C3.05119 14.9949 1.4421 14.4906 0.16698 13.8084V17.3382C1.57872 17.9315 3.00565 18.1836 4.31113 18.1836C7.46858 18.1836 9.63932 16.656 9.63932 14.0012C9.62414 9.58139 3.84055 10.3675 3.84055 8.70634Z" fill="#32325D"/>
</svg>
