<svg width="52" height="52" viewBox="0 0 52 52" fill="none" xmlns="http://www.w3.org/2000/svg">
<circle cx="26" cy="26" r="26" fill="#F5EDFE"/>
<path fill-rule="evenodd" clip-rule="evenodd" d="M22.25 20.75C22.25 19.7554 22.6451 18.8016 23.3483 18.0983C24.0516 17.3951 25.0054 17 26 17C26.9946 17 27.9484 17.3951 28.6517 18.0983C29.3549 18.8016 29.75 19.7554 29.75 20.75C29.75 21.7446 29.3549 22.6984 28.6517 23.4017C27.9484 24.1049 26.9946 24.5 26 24.5C25.0054 24.5 24.0516 24.1049 23.3483 23.4017C22.6451 22.6984 22.25 21.7446 22.25 20.75ZM29.75 23.75C29.75 22.9544 30.0661 22.1913 30.6287 21.6287C31.1913 21.0661 31.9544 20.75 32.75 20.75C33.5456 20.75 34.3087 21.0661 34.8713 21.6287C35.4339 22.1913 35.75 22.9544 35.75 23.75C35.75 24.5456 35.4339 25.3087 34.8713 25.8713C34.3087 26.4339 33.5456 26.75 32.75 26.75C31.9544 26.75 31.1913 26.4339 30.6287 25.8713C30.0661 25.3087 29.75 24.5456 29.75 23.75ZM16.25 23.75C16.25 22.9544 16.5661 22.1913 17.1287 21.6287C17.6913 21.0661 18.4544 20.75 19.25 20.75C20.0456 20.75 20.8087 21.0661 21.3713 21.6287C21.9339 22.1913 22.25 22.9544 22.25 23.75C22.25 24.5456 21.9339 25.3087 21.3713 25.8713C20.8087 26.4339 20.0456 26.75 19.25 26.75C18.4544 26.75 17.6913 26.4339 17.1287 25.8713C16.5661 25.3087 16.25 24.5456 16.25 23.75ZM20.31 29.117C20.92 28.161 21.7611 27.3743 22.7556 26.8294C23.7502 26.2846 24.866 25.9994 26 26C26.9498 25.9991 27.8891 26.1989 28.7564 26.5862C29.6237 26.9734 30.3994 27.5395 31.0327 28.2474C31.6661 28.9552 32.1428 29.7888 32.4317 30.6936C32.7205 31.5985 32.815 32.5541 32.709 33.498C32.696 33.6153 32.6556 33.7278 32.591 33.8265C32.5263 33.9252 32.4393 34.0073 32.337 34.066C30.4086 35.1725 28.2233 35.7532 26 35.75C23.695 35.75 21.53 35.138 19.663 34.066C19.5607 34.0073 19.4737 33.9252 19.409 33.8265C19.3444 33.7278 19.304 33.6153 19.291 33.498C19.1231 31.9646 19.4825 30.4198 20.31 29.118V29.117Z" fill="#9C4DF4"/>
<path d="M19.0821 28.2539C18.0958 29.7763 17.6363 31.5802 17.7741 33.3889C17.1736 33.2979 16.583 33.1505 16.0101 32.9489L15.8951 32.9089C15.7925 32.8725 15.7026 32.8071 15.6364 32.7207C15.5702 32.6342 15.5305 32.5305 15.5221 32.4219L15.5121 32.3009C15.4717 31.7989 15.5328 31.2938 15.6919 30.816C15.8509 30.3381 16.1046 29.8971 16.4378 29.5194C16.771 29.1417 17.1768 28.835 17.6312 28.6176C18.0855 28.4001 18.5789 28.2765 19.0821 28.2539ZM34.2261 33.3889C34.3638 31.5802 33.9043 29.7763 32.9181 28.2539C33.4212 28.2765 33.9147 28.4001 34.369 28.6176C34.8233 28.835 35.2292 29.1417 35.5624 29.5194C35.8955 29.8971 36.1492 30.3381 36.3083 30.816C36.4673 31.2938 36.5285 31.7989 36.4881 32.3009L36.4781 32.4219C36.4695 32.5303 36.4297 32.6338 36.3635 32.7201C36.2973 32.8063 36.2075 32.8716 36.1051 32.9079L35.9901 32.9479C35.4231 33.1479 34.8341 33.2969 34.2261 33.3889Z" fill="#9C4DF4"/>
</svg>
