<svg width="23" height="23" viewBox="0 0 23 23" fill="none" xmlns="http://www.w3.org/2000/svg">
<path opacity="0.4" d="M21.3333 10.8335C21.3333 5.03451 16.6323 0.333496 10.8333 0.333496C5.03435 0.333496 0.333344 5.03451 0.333344 10.8335C0.333344 16.6325 5.03435 21.3335 10.8333 21.3335C16.6323 21.3335 21.3333 16.6325 21.3333 10.8335Z" fill="#7F56D9"/>
<path fill-rule="evenodd" clip-rule="evenodd" d="M10.6806 14.042C9.43065 14.0455 8.18798 14.3868 6.52435 15.1322C6.08334 15.3298 5.56566 15.1324 5.36808 14.6914C5.17049 14.2504 5.36783 13.7327 5.80884 13.5351C7.58202 12.7407 9.08087 12.2964 10.6758 12.292C12.2637 12.2876 13.8607 12.7196 15.8305 13.5235C16.278 13.7061 16.4927 14.2168 16.3101 14.6643C16.1275 15.1117 15.6167 15.3264 15.1693 15.1438C13.2889 14.3764 11.9376 14.0385 10.6806 14.042Z" fill="#7F56D9"/>
<ellipse cx="3.5" cy="3.5" rx="3.5" ry="3.5" transform="matrix(1 0 0 -1 7.33334 10.8335)" fill="#7F56D9"/>
<path fill-rule="evenodd" clip-rule="evenodd" d="M19.875 16.667C19.875 16.1837 19.4833 15.792 19 15.792C18.5168 15.792 18.125 16.1837 18.125 16.667V18.1253H16.6667C16.1834 18.1253 15.7917 18.5171 15.7917 19.0003C15.7917 19.4836 16.1834 19.8753 16.6667 19.8753H18.125V21.3337C18.125 21.8169 18.5168 22.2087 19 22.2087C19.4833 22.2087 19.875 21.8169 19.875 21.3337V19.8753H21.3334C21.8166 19.8753 22.2084 19.4836 22.2084 19.0003C22.2084 18.5171 21.8166 18.1253 21.3334 18.1253H19.875V16.667Z" fill="#7F56D9"/>
</svg>
