<svg width="18" height="19" viewBox="0 0 18 19" fill="none" xmlns="http://www.w3.org/2000/svg">
<path d="M3.98722 15.0788C4.44347 14.0039 5.50869 13.25 6.75 13.25H11.25C12.4913 13.25 13.5565 14.0039 14.0128 15.0788M12 7.625C12 9.28185 10.6569 10.625 9 10.625C7.34315 10.625 6 9.28185 6 7.625C6 5.96815 7.34315 4.625 9 4.625C10.6569 4.625 12 5.96815 12 7.625ZM16.5 9.5C16.5 13.6421 13.1421 17 9 17C4.85786 17 1.5 13.6421 1.5 9.5C1.5 5.35786 4.85786 2 9 2C13.1421 2 16.5 5.35786 16.5 9.5Z" stroke="#6C688A" stroke-width="1.3" stroke-linecap="round" stroke-linejoin="round"/>
</svg>
