<svg width="46" height="46" viewBox="0 0 46 46" fill="none" xmlns="http://www.w3.org/2000/svg">
<circle cx="23" cy="23" r="23" fill="#2566AF" fill-opacity="0.05"/>
<circle cx="23" cy="23" r="22.75" stroke="#2566AF" stroke-opacity="0.15" stroke-width="0.5"/>
<path d="M21.9707 26.3373H20.094L21.2669 19.1288H23.1439L21.9707 26.3373ZM18.5151 19.1288L16.7259 24.0869L16.5142 23.0192L16.5144 23.0196L15.8829 19.7779C15.8829 19.7779 15.8065 19.1288 14.9926 19.1288H12.0347L12 19.2509C12 19.2509 12.9045 19.4391 13.9631 20.0748L15.5937 26.3375H17.5491L20.535 19.1288H18.5151ZM33.2767 26.3373H35L33.4975 19.1286H31.9889C31.2922 19.1286 31.1225 19.6658 31.1225 19.6658L28.3235 26.3373H30.2799L30.6711 25.2666H33.0569L33.2767 26.3373ZM31.2116 23.7874L32.1977 21.0898L32.7524 23.7874H31.2116ZM28.4702 20.8623L28.7381 19.3143C28.7381 19.3143 27.9116 19 27.0501 19C26.1187 19 23.9071 19.4071 23.9071 21.3864C23.9071 23.2487 26.5028 23.2718 26.5028 24.25C26.5028 25.2282 24.1745 25.0529 23.4061 24.4361L23.1271 26.0546C23.1271 26.0546 23.9651 26.4617 25.2454 26.4617C26.5262 26.4617 28.4583 25.7986 28.4583 23.9937C28.4583 22.1195 25.8391 21.945 25.8391 21.1301C25.8393 20.3151 27.6671 20.4198 28.4702 20.8623Z" fill="#2566AF"/>
<path d="M16.5144 23.0195L15.8829 19.7777C15.8829 19.7777 15.8065 19.1287 14.9926 19.1287H12.0347L12 19.2507C12 19.2507 13.4217 19.5454 14.7853 20.6493C16.0892 21.7044 16.5144 23.0195 16.5144 23.0195Z" fill="#E6A540"/>
</svg>
