<svg width="28" height="28" viewBox="0 0 28 28" fill="none" xmlns="http://www.w3.org/2000/svg">
<path fill-rule="evenodd" clip-rule="evenodd" d="M13.203 6.32852C10.7253 4.59237 7.24817 3.8056 4.66006 3.51315C3.37917 3.36841 2.33334 4.43803 2.33334 5.75771V18.8999C2.33334 20.2196 3.37917 21.2896 4.66006 21.4344C7.24817 21.7268 10.7253 22.5136 13.203 24.2497C13.4411 24.4166 13.7205 24.5 14 24.5V6.57878C13.7205 6.57878 13.4411 6.49536 13.203 6.32852ZM4.96878 9.49662C5.04273 9.01907 5.48983 8.69189 5.96738 8.76584C7.48729 9.00123 9.19896 9.39467 10.8157 10.0199C11.2664 10.1942 11.4905 10.7008 11.3162 11.1516C11.1419 11.6023 10.6353 11.8264 10.1845 11.6521C8.71613 11.0842 7.13313 10.7172 5.69955 10.4952C5.222 10.4213 4.89482 9.97418 4.96878 9.49662ZM5.96738 13.4325C5.48983 13.3586 5.04273 13.6857 4.96878 14.1633C4.89482 14.6408 5.222 15.0879 5.69955 15.1619C6.42201 15.2738 7.18462 15.4228 7.95275 15.6166C8.42132 15.7348 8.897 15.4508 9.01522 14.9823C9.13343 14.5137 8.84942 14.038 8.38085 13.9198C7.55368 13.7111 6.73707 13.5517 5.96738 13.4325Z" fill="#7F56D9"/>
<path opacity="0.4" d="M14.797 6.32852C17.2747 4.59237 20.7518 3.8056 23.3399 3.51315C24.6208 3.36841 25.6667 4.43803 25.6667 5.75771V18.8999C25.6667 20.2196 24.6208 21.2896 23.3399 21.4344C20.7518 21.7268 17.2747 22.5136 14.797 24.2497C14.5589 24.4166 14.2795 24.5 14 24.5V6.57878C14.2795 6.57878 14.5589 6.49536 14.797 6.32852Z" fill="#7F56D9"/>
<path fill-rule="evenodd" clip-rule="evenodd" d="M21 16.625C21.4832 16.625 21.875 17.0168 21.875 17.5V20.125H24.5C24.9832 20.125 25.375 20.5168 25.375 21C25.375 21.4832 24.9832 21.875 24.5 21.875H21.875V24.5C21.875 24.9832 21.4832 25.375 21 25.375C20.5168 25.375 20.125 24.9832 20.125 24.5V21.875H17.5C17.0168 21.875 16.625 21.4832 16.625 21C16.625 20.5168 17.0168 20.125 17.5 20.125H20.125V17.5C20.125 17.0168 20.5168 16.625 21 16.625Z" fill="#7F56D9"/>
</svg>
