<svg width="24" height="24" viewBox="0 0 24 24" fill="none" xmlns="http://www.w3.org/2000/svg">
<g id="fi-rr-cloud-upload" clip-path="url(#clip0_527_8074)">
<path id="Vector" d="M18.4011 7.37889C18.2202 7.32729 18.0551 7.23128 17.9208 7.09959C17.7864 6.9679 17.6872 6.80472 17.6321 6.62489C17.3258 5.58693 16.8122 4.6219 16.1222 3.78818C15.4323 2.95447 14.5803 2.2694 13.618 1.77445C12.6556 1.27949 11.6028 0.984934 10.5233 0.908599C9.44383 0.832265 8.36008 0.975741 7.33764 1.33034C6.3152 1.68495 5.37533 2.24331 4.57492 2.97163C3.7745 3.69996 3.13017 4.58311 2.68093 5.56764C2.23168 6.55218 1.98685 7.61762 1.96126 8.6995C1.93567 9.78139 2.12985 10.8572 2.53205 11.8619C2.62445 12.0733 2.64434 12.3094 2.58863 12.5333C2.53293 12.7572 2.40475 12.9564 2.22405 13.0999C1.42778 13.6909 0.806095 14.4862 0.424801 15.4015C0.0435068 16.3169 -0.0832142 17.3184 0.0580501 18.2999C0.278503 19.6268 0.967374 20.8306 1.99963 21.693C3.03189 22.5553 4.33912 23.019 5.68405 22.9999H11.001C11.2663 22.9999 11.5206 22.8945 11.7082 22.707C11.8957 22.5195 12.001 22.2651 12.001 21.9999C12.001 21.7347 11.8957 21.4803 11.7082 21.2928C11.5206 21.1052 11.2663 20.9999 11.001 20.9999H5.68405C4.82033 21.0208 3.97768 20.7317 3.30881 20.1848C2.63994 19.6379 2.18912 18.8696 2.03805 18.0189C1.94225 17.3936 2.01989 16.7541 2.26252 16.1699C2.50515 15.5857 2.90346 15.0793 3.41405 14.7059C3.95037 14.3051 4.33833 13.7374 4.51699 13.0921C4.69564 12.4468 4.65486 11.7605 4.40105 11.1409C3.8992 9.81559 3.8734 8.35711 4.32805 7.01489C4.69125 5.96346 5.34163 5.03477 6.20553 4.334C7.06944 3.63323 8.11232 3.18839 9.21605 3.04989C9.47207 3.01693 9.72992 3.00023 9.98805 2.99989C11.2811 2.99562 12.5408 3.41032 13.5784 4.18188C14.616 4.95344 15.3758 6.04036 15.7441 7.27989C15.8878 7.75226 16.1467 8.18146 16.4976 8.52884C16.8485 8.87623 17.2803 9.13089 17.7541 9.26989C18.9135 9.61281 19.9406 10.3018 20.6978 11.2445C21.4549 12.1873 21.906 13.3388 21.9906 14.545C22.0752 15.7511 21.7893 16.9544 21.1712 17.9936C20.5531 19.0328 19.6323 19.8584 18.5321 20.3599C18.3692 20.4433 18.2331 20.5707 18.1392 20.7277C18.0453 20.8847 17.9974 21.065 18.0011 21.2479C17.9991 21.4134 18.0388 21.5767 18.1164 21.7228C18.194 21.869 18.307 21.9933 18.4452 22.0844C18.5834 22.1755 18.7422 22.2304 18.9071 22.2441C19.072 22.2578 19.2377 22.2299 19.3891 22.1629C23.5231 20.1759 25.7691 14.9489 22.2691 9.89889C21.3053 8.64181 19.9403 7.75251 18.4011 7.37889Z" fill="white"/>
<path id="Vector_2" d="M18.7064 16.707C18.8939 16.5194 18.9992 16.2651 18.9992 16C18.9992 15.7348 18.8939 15.4805 18.7064 15.293L17.1204 13.707C16.5578 13.1446 15.7949 12.8286 14.9994 12.8286C14.2039 12.8286 13.441 13.1446 12.8784 13.707L11.2924 15.293C11.1103 15.4816 11.0095 15.7342 11.0118 15.9964C11.014 16.2586 11.1192 16.5094 11.3046 16.6948C11.49 16.8802 11.7408 16.9854 12.003 16.9876C12.2652 16.9899 12.5178 16.8891 12.7064 16.707L13.9994 15.414V23C13.9994 23.2652 14.1048 23.5195 14.2923 23.7071C14.4799 23.8946 14.7342 24 14.9994 24C15.2646 24 15.519 23.8946 15.7065 23.7071C15.8941 23.5195 15.9994 23.2652 15.9994 23V15.414L17.2924 16.707C17.48 16.8944 17.7343 16.9998 17.9994 16.9998C18.2646 16.9998 18.5189 16.8944 18.7064 16.707Z" fill="white"/>
</g>
<defs>
<clipPath id="clip0_527_8074">
<rect width="24" height="24" fill="white"/>
</clipPath>
</defs>
</svg>
