<svg width="60" height="60" viewBox="0 0 60 60" fill="none" xmlns="http://www.w3.org/2000/svg">
<circle cx="30" cy="30" r="29.5" fill="#FFF7F6" stroke="#FFE0DC"/>
<path fill-rule="evenodd" clip-rule="evenodd" d="M34.5 22.4779V22.7049C35.799 22.8237 37.0927 22.9945 38.378 23.2169C38.4751 23.2338 38.5678 23.2695 38.6511 23.3222C38.7343 23.3749 38.8063 23.4434 38.8631 23.5239C38.9198 23.6044 38.9601 23.6953 38.9817 23.7914C39.0033 23.8875 39.0058 23.9869 38.989 24.0839C38.9722 24.181 38.9364 24.2738 38.8838 24.357C38.8311 24.4402 38.7626 24.5123 38.682 24.569C38.6015 24.6257 38.5106 24.6661 38.4146 24.6877C38.3185 24.7093 38.2191 24.7118 38.122 24.6949L37.913 24.6599L36.908 37.7299C36.8501 38.4835 36.5098 39.1875 35.9553 39.701C35.4008 40.2146 34.6728 40.4999 33.917 40.4999H26.084C25.3282 40.4999 24.6003 40.2146 24.0457 39.701C23.4912 39.1875 23.151 38.4835 23.093 37.7299L22.087 24.6599L21.878 24.6949C21.781 24.7118 21.6816 24.7093 21.5855 24.6877C21.4894 24.6661 21.3985 24.6257 21.318 24.569C21.1554 24.4544 21.045 24.2799 21.011 24.0839C20.9771 23.888 21.0224 23.6865 21.1369 23.5239C21.2515 23.3613 21.426 23.2509 21.622 23.2169C22.9073 22.9943 24.201 22.8235 25.5 22.7049V22.4779C25.5 20.9139 26.713 19.5779 28.316 19.5269C29.4387 19.491 30.5623 19.491 31.685 19.5269C33.288 19.5779 34.5 20.9139 34.5 22.4779ZM28.364 21.0259C29.4547 20.9911 30.5463 20.9911 31.637 21.0259C32.39 21.0499 33 21.6839 33 22.4779V22.5909C31.0018 22.4696 28.9982 22.4696 27 22.5909V22.4779C27 21.6839 27.609 21.0499 28.364 21.0259ZM28.009 26.9709C28.0052 26.8725 27.982 26.7757 27.9408 26.6861C27.8996 26.5966 27.8412 26.5161 27.7688 26.4491C27.6965 26.3822 27.6117 26.3301 27.5192 26.2959C27.4268 26.2618 27.3285 26.2461 27.23 26.2499C27.1315 26.2538 27.0347 26.2769 26.9452 26.3181C26.8557 26.3593 26.7751 26.4178 26.7082 26.4901C26.6412 26.5625 26.5892 26.6473 26.555 26.7397C26.5208 26.8322 26.5052 26.9305 26.509 27.0289L26.856 36.0289C26.8637 36.2277 26.95 36.4153 27.096 36.5504C27.1683 36.6173 27.2531 36.6693 27.3455 36.7035C27.4379 36.7376 27.5361 36.7533 27.6345 36.7494C27.7329 36.7456 27.8296 36.7225 27.9191 36.6813C28.0086 36.6401 28.0891 36.5817 28.156 36.5094C28.2229 36.4371 28.2749 36.3524 28.3091 36.26C28.3432 36.1676 28.3588 36.0694 28.355 35.9709L28.009 26.9709ZM33.489 27.0289C33.4963 26.9286 33.4834 26.8277 33.4509 26.7325C33.4185 26.6372 33.3672 26.5494 33.3001 26.4744C33.233 26.3994 33.1515 26.3386 33.0604 26.2957C32.9694 26.2529 32.8706 26.2288 32.77 26.2249C32.6694 26.221 32.5691 26.2374 32.475 26.2731C32.3809 26.3088 32.2949 26.363 32.2222 26.4327C32.1496 26.5023 32.0916 26.5858 32.0519 26.6783C32.0122 26.7708 31.9915 26.8703 31.991 26.9709L31.644 35.9709C31.6363 36.1699 31.708 36.3637 31.8432 36.5098C31.9784 36.6559 32.1661 36.7423 32.365 36.7499C32.5639 36.7576 32.7577 36.686 32.9038 36.5508C33.0499 36.4156 33.1363 36.2279 33.144 36.0289L33.489 27.0289Z" fill="url(#paint0_linear_2748_21272)"/>
<defs>
<linearGradient id="paint0_linear_2748_21272" x1="26.2857" y1="19.5" x2="36.8937" y2="39.2528" gradientUnits="userSpaceOnUse">
<stop stop-color="#FFA093"/>
<stop offset="1" stop-color="#FF6652"/>
</linearGradient>
</defs>
</svg>
