<svg width="42" height="42" viewBox="0 0 42 42" fill="none" xmlns="http://www.w3.org/2000/svg">
<g clip-path="url(#clip0_1083_37562)">
<path d="M21 42C32.598 42 42 32.598 42 21C42 9.40202 32.598 0 21 0C9.40202 0 0 9.40202 0 21C0 32.598 9.40202 42 21 42Z" fill="#EA4C88"/>
<path d="M21 34.125C23.5959 34.125 26.1335 33.3552 28.2919 31.913C30.4503 30.4709 32.1325 28.421 33.1259 26.0227C34.1193 23.6244 34.3792 20.9854 33.8728 18.4394C33.3664 15.8934 32.1163 13.5548 30.2808 11.7192C28.4452 9.88367 26.1066 8.63363 23.5606 8.1272C21.0146 7.62077 18.3756 7.88069 15.9773 8.87409C13.579 9.86749 11.5292 11.5498 10.087 13.7081C8.64477 15.8665 7.875 18.4041 7.875 21C7.88257 24.4786 9.2678 27.8126 11.7276 30.2724C14.1874 32.7322 17.5214 34.1174 21 34.125ZM21 31.7386C18.8247 31.7405 16.7013 31.074 14.9172 29.8295C16.866 27.0496 19.6266 24.94 22.8208 23.7897C23.5798 26.1885 24.0603 28.6668 24.2526 31.1755C23.2039 31.5297 22.1068 31.7197 21 31.7386ZM26.5364 30.1541C26.3034 27.7763 25.8276 25.4286 25.1165 23.1477C27.2283 22.7266 29.4025 22.7266 31.5143 23.1477C31.2094 24.5951 30.6094 25.9641 29.7516 27.1692C28.8939 28.3743 27.7969 29.3896 26.5292 30.1517L26.5364 30.1541ZM31.7124 20.7614C29.2636 20.3089 26.7496 20.3446 24.3147 20.8664C24.0116 20.0884 23.687 19.3176 23.3243 18.5611C25.4472 17.2866 27.2997 15.6084 28.7772 13.6214C30.6068 15.5553 31.6528 18.0998 31.7124 20.7614ZM21 10.2614C23.1143 10.2585 25.182 10.8821 26.942 12.0535C25.6723 13.8093 24.0702 15.2988 22.2266 16.4373C21.0781 14.3869 19.7245 12.4584 18.1865 10.6814C19.1015 10.4171 20.0477 10.2758 21 10.2614ZM15.8645 11.6264C17.4888 13.4284 18.9078 15.4053 20.0956 17.5207C17.0928 18.8075 13.7753 19.173 10.5644 18.5707C10.9107 17.1059 11.5616 15.7305 12.4748 14.534C13.388 13.3375 14.543 12.3468 15.8645 11.6264ZM13.6023 21.284C16.2209 21.2759 18.8089 20.7208 21.2005 19.6541C21.5011 20.2817 21.7684 20.8998 22.0261 21.5632C18.452 22.8398 15.3486 25.1694 13.125 28.245C11.2902 26.278 10.2672 23.6899 10.2614 21C11.3672 21.1707 12.4835 21.2655 13.6023 21.284Z" fill="white"/>
</g>
<defs>
<clipPath id="clip0_1083_37562">
<rect width="42" height="42" fill="white"/>
</clipPath>
</defs>
</svg>
