<svg width="13" height="13" viewBox="0 0 13 13" fill="none" xmlns="http://www.w3.org/2000/svg">
<path fill-rule="evenodd" clip-rule="evenodd" d="M4.38924 12.1078L10.3136 4.44648C10.6356 4.03333 10.7501 3.55568 10.6427 3.06933C10.5497 2.62719 10.2778 2.20679 9.86999 1.88787L8.87544 1.09782C8.00968 0.409243 6.93643 0.481725 6.32109 1.27178L5.65568 2.13504C5.56982 2.24303 5.59128 2.40249 5.69861 2.48947C5.69861 2.48947 7.38004 3.83763 7.41581 3.86663C7.53029 3.97535 7.61616 4.12031 7.63762 4.29427C7.6734 4.63493 7.43728 4.95385 7.08668 4.99734C6.92212 5.01909 6.76471 4.96835 6.65023 4.87412L4.88293 3.46798C4.79707 3.40347 4.66828 3.41724 4.59673 3.50422L0.396728 8.94036C0.124837 9.28102 0.0318217 9.72316 0.124837 10.1508L0.661465 12.4775C0.690085 12.6007 0.79741 12.6877 0.926201 12.6877L3.28736 12.6587C3.71666 12.6514 4.11734 12.4557 4.38924 12.1078ZM7.69575 11.3829H11.5459C11.9215 11.3829 12.227 11.6924 12.227 12.073C12.227 12.4542 11.9215 12.763 11.5459 12.763H7.69575C7.32011 12.763 7.01459 12.4542 7.01459 12.073C7.01459 11.6924 7.32011 11.3829 7.69575 11.3829Z" fill="#FF6652"/>
</svg>
