<svg width="66" height="66" viewBox="0 0 66 66" fill="none" xmlns="http://www.w3.org/2000/svg">
<circle cx="33" cy="33" r="33" fill="white"/>
<path opacity="0.4" d="M21.1543 19.6729H37.8851C40.0942 19.6729 41.8851 21.4637 41.8851 23.6729V24.5575C41.8851 26.7666 40.0942 28.5575 37.8851 28.5575H21.1543V19.6729Z" fill="#FF6652"/>
<path fill-rule="evenodd" clip-rule="evenodd" d="M17.082 19.6731C17.082 19.0597 17.5793 18.5625 18.1926 18.5625H37.4426C40.5094 18.5625 42.9955 21.0486 42.9955 24.1154C42.9955 27.1822 40.5094 29.6683 37.4426 29.6683H18.1926C17.5793 29.6683 17.082 29.171 17.082 28.5577C17.082 27.9443 17.5793 27.4471 18.1926 27.4471H37.4426C39.2827 27.4471 40.7743 25.9554 40.7743 24.1154C40.7743 22.2753 39.2827 20.7837 37.4426 20.7837H18.1926C17.5793 20.7837 17.082 20.2864 17.082 19.6731Z" fill="#FF6652"/>
<path opacity="0.4" d="M21.1543 37.4424H37.8851C40.0942 37.4424 41.8851 39.2332 41.8851 41.4424V42.327C41.8851 44.5361 40.0942 46.327 37.8851 46.327H21.1543V37.4424Z" fill="#FF6652"/>
<path fill-rule="evenodd" clip-rule="evenodd" d="M17.082 37.4421C17.082 36.8288 17.5793 36.3315 18.1926 36.3315H37.4426C40.5094 36.3315 42.9955 38.8177 42.9955 41.8844C42.9955 44.9512 40.5094 47.4373 37.4426 47.4373H18.1926C17.5793 47.4373 17.082 46.9401 17.082 46.3267C17.082 45.7134 17.5793 45.2162 18.1926 45.2162H37.4426C39.2827 45.2162 40.7743 43.7245 40.7743 41.8844C40.7743 40.0444 39.2827 38.5527 37.4426 38.5527H18.1926C17.5793 38.5527 17.082 38.0555 17.082 37.4421Z" fill="#FF6652"/>
<path opacity="0.4" d="M44.8457 28.5576H28.1149C25.9058 28.5576 24.1149 30.3485 24.1149 32.5576V33.4422C24.1149 35.6514 25.9058 37.4422 28.1149 37.4422H44.8457V28.5576Z" fill="#FF6652"/>
<path fill-rule="evenodd" clip-rule="evenodd" d="M48.918 28.5578C48.918 27.9445 48.4207 27.4473 47.8074 27.4473H28.5574C25.4906 27.4473 23.0045 29.9334 23.0045 33.0002C23.0045 36.0669 25.4906 38.553 28.5574 38.553H47.8074C48.4207 38.553 48.918 38.0558 48.918 37.4425C48.918 36.8291 48.4207 36.3319 47.8074 36.3319H28.5574C26.7173 36.3319 25.2257 34.8402 25.2257 33.0002C25.2257 31.1601 26.7173 29.6684 28.5574 29.6684H47.8074C48.4207 29.6684 48.918 29.1712 48.918 28.5578Z" fill="#FF6652"/>
</svg>
