<svg width="80" height="80" viewBox="0 0 80 80" fill="none" xmlns="http://www.w3.org/2000/svg">
<circle cx="40" cy="40" r="40" fill="#1877F2"/>
<g clip-path="url(#clip0_2327_21239)">
<path d="M61 35.5C61 45.7324 53.5031 54.2135 43.7031 55.751V41.4258H48.4798L49.3887 35.5H43.7031V31.6546C43.7031 30.0331 44.4975 28.4531 47.044 28.4531H49.6289V23.4082C49.6289 23.4082 47.2826 23.0078 45.0396 23.0078C40.3575 23.0078 37.2969 25.8458 37.2969 30.9836V35.5H32.0918V41.4258H37.2969V55.751C27.4969 54.2135 20 45.7324 20 35.5C20 24.1786 29.1786 15 40.5 15C51.8214 15 61 24.1786 61 35.5Z" fill="#1877F2"/>
<path d="M48.4798 41.4258L49.3887 35.5H43.7031V31.6546C43.7031 30.0334 44.4973 28.4531 47.0439 28.4531H49.6289V23.4082C49.6289 23.4082 47.2829 23.0078 45.04 23.0078C40.3574 23.0078 37.2969 25.8458 37.2969 30.9836V35.5H32.0918V41.4258H37.2969V55.7509C38.3406 55.9146 39.4103 56 40.5 56C41.5897 56 42.6594 55.9146 43.7031 55.7509V41.4258H48.4798Z" fill="white"/>
</g>
<defs>
<clipPath id="clip0_2327_21239">
<rect width="41" height="41" fill="white" transform="translate(20 15)"/>
</clipPath>
</defs>
</svg>
