<svg width="40" height="40" viewBox="0 0 40 40" fill="none" xmlns="http://www.w3.org/2000/svg">
<path d="M39.9999 20.4603C39.9999 19.1008 39.8874 17.7339 39.6475 16.3965H20.4028V24.0979H31.4234C30.966 26.5817 29.4966 28.7789 27.345 30.1752V35.1723H33.9198C37.7808 31.689 39.9999 26.545 39.9999 20.4603Z" fill="#1F7BF4"/>
<path d="M20.403 40C25.9058 40 30.5464 38.229 33.9275 35.172L27.3527 30.1749C25.5234 31.3948 23.1619 32.0855 20.4105 32.0855C15.0877 32.0855 10.5745 28.5655 8.95515 23.833H2.17041V28.9844C5.634 35.7378 12.6886 40 20.403 40Z" fill="#0AA630"/>
<path d="M8.94761 23.8331C8.09296 21.3493 8.09296 18.6597 8.94761 16.1758V11.0244H2.17037C-0.723456 16.6755 -0.723456 23.3334 2.17037 28.9845L8.94761 23.8331Z" fill="#FBBC04"/>
<path d="M20.403 7.91583C23.3118 7.87174 26.1232 8.94464 28.2298 10.9141L34.055 5.20419C30.3665 1.80911 25.4709 -0.0574414 20.403 0.00134773C12.6886 0.00134773 5.634 4.26356 2.17041 11.0243L8.94766 16.1757C10.5595 11.4358 15.0802 7.91583 20.403 7.91583Z" fill="#EA4335"/>
</svg>
