<svg width="81" height="25" viewBox="0 0 81 25" fill="none" xmlns="http://www.w3.org/2000/svg">
<path d="M18.4085 8.24491V14.0528C18.4085 16.4556 16.4524 18.4085 14.0486 18.4085H11.6264V14.0516C11.6264 12.718 10.5394 11.6335 9.20427 11.6335C7.86916 11.6335 6.78209 12.718 6.78209 14.0516V18.4085H4.35992C1.95615 18.4085 0 16.4546 0 14.0528V8.24491C0 6.91995 0.592943 5.68226 1.62576 4.85065L6.47011 0.955195C8.05324 -0.318398 10.3524 -0.318398 11.9374 0.955195L16.7818 4.85065C17.8156 5.68226 18.4085 6.91898 18.4085 8.24491Z" fill="url(#paint0_linear_948_18275)"/>
<g clip-path="url(#clip0_948_18275)">
<path d="M9.32736 19.0165C8.23469 19.0165 7.16656 18.6925 6.25804 18.0855C5.34952 17.4784 4.64142 16.6156 4.22327 15.6061C3.80513 14.5966 3.69572 13.4858 3.90889 12.4141C4.12206 11.3424 4.64823 10.358 5.42086 9.58541C6.19349 8.81278 7.17789 8.28661 8.24956 8.07344C9.32123 7.86027 10.432 7.96968 11.4415 8.38782C12.451 8.80597 13.3139 9.51407 13.9209 10.4226C14.528 11.3311 14.852 12.3992 14.852 13.4919C14.8503 14.9566 14.2677 16.3609 13.232 17.3966C12.1963 18.4323 10.7921 19.0149 9.32736 19.0165ZM9.32736 20.3977C7.83114 20.397 6.37614 19.9074 5.18389 19.0034V22.8147C5.18389 23.1399 5.27575 23.4585 5.44889 23.7338C5.62203 24.0091 5.86942 24.2299 6.16255 24.3708C6.45569 24.5117 6.78265 24.5669 7.10579 24.5301C7.42892 24.4932 7.73509 24.3659 7.98902 24.1627L9.1119 23.2649C9.17308 23.2161 9.24906 23.1895 9.32736 23.1895C9.40566 23.1895 9.48163 23.2161 9.54282 23.2649L10.6657 24.1627C10.9196 24.3659 11.2258 24.4932 11.5489 24.5301C11.8721 24.5669 12.199 24.5117 12.4922 24.3708C12.7853 24.2299 13.0327 24.0091 13.2058 23.7338C13.379 23.4585 13.4708 23.1399 13.4708 22.8147V19.0034C12.2785 19.9073 10.8236 20.3969 9.32736 20.3977Z" fill="url(#paint1_linear_948_18275)"/>
</g>
<rect x="8.21436" y="11.9253" width="1.97897" height="5.68954" rx="0.989484" fill="white"/>
<circle cx="9.20384" cy="10.4411" r="0.989484" fill="white"/>
<ellipse cx="77.6021" cy="14.7699" rx="0.865799" ry="1.11317" fill="#0A033C"/>
<path d="M24.2814 18.3572C23.8131 18.3572 23.4334 17.9775 23.4334 17.5092V12.0089C23.4334 11.5406 23.8131 11.1609 24.2814 11.1609C24.7498 11.1609 25.1294 11.5406 25.1294 12.0089V17.5092C25.1294 17.9775 24.7498 18.3572 24.2814 18.3572ZM24.2861 10.1396C24.0175 10.1396 23.7864 10.0506 23.5927 9.87252C23.3991 9.69136 23.3022 9.47429 23.3022 9.2213C23.3022 8.96518 23.3991 8.74811 23.5927 8.57007C23.7864 8.38892 24.0175 8.29834 24.2861 8.29834C24.5578 8.29834 24.789 8.38892 24.9795 8.57007C25.1731 8.74811 25.27 8.96518 25.27 9.2213C25.27 9.47429 25.1731 9.69136 24.9795 9.87252C24.789 10.0506 24.5578 10.1396 24.2861 10.1396Z" fill="#0A033C"/>
<path d="M26.9484 18.3572V13.5597V9.63124C26.9484 9.15126 27.3375 8.76216 27.8175 8.76216C28.2975 8.76216 28.6866 9.15126 28.6866 9.63124V16.9001H32.9125V18.3572H26.9484Z" fill="#0A033C"/>
<path d="M37.5319 18.4977C36.8104 18.4977 36.1873 18.3478 35.6626 18.0479C35.141 17.745 34.7396 17.3171 34.4585 16.7642C34.1774 16.2083 34.0369 15.5539 34.0369 14.8012C34.0369 14.061 34.1774 13.4113 34.4585 12.8522C34.7428 12.29 35.1394 11.8527 35.6485 11.5404C36.1577 11.2249 36.7558 11.0672 37.4429 11.0672C37.8864 11.0672 38.305 11.139 38.6985 11.2827C39.0952 11.4233 39.445 11.6419 39.748 11.9386C40.0541 12.2354 40.2946 12.6133 40.4695 13.0724C40.6444 13.5284 40.7318 14.0719 40.7318 14.7028V15.2229H34.8333V14.0797H39.1061C39.103 13.7549 39.0327 13.466 38.8953 13.213C38.7579 12.9569 38.5658 12.7554 38.319 12.6086C38.0754 12.4618 37.7912 12.3884 37.4664 12.3884C37.1197 12.3884 36.8151 12.4727 36.5528 12.6414C36.2904 12.8069 36.0858 13.0256 35.939 13.2973C35.7953 13.5659 35.7219 13.8611 35.7188 14.1828V15.1807C35.7188 15.5992 35.7953 15.9584 35.9484 16.2583C36.1014 16.555 36.3154 16.783 36.5902 16.9423C36.8651 17.0984 37.1868 17.1765 37.5554 17.1765C37.8021 17.1765 38.0254 17.1422 38.2253 17.0735C38.4252 17.0016 38.5986 16.897 38.7454 16.7596C38.8922 16.6221 39.003 16.4519 39.078 16.2489L40.6616 16.4269C40.5616 16.8454 40.3711 17.2109 40.09 17.5232C39.812 17.8324 39.4559 18.0729 39.0218 18.2447C38.5876 18.4134 38.091 18.4977 37.5319 18.4977Z" fill="#0A033C"/>
<path d="M44.2374 18.5024C43.7814 18.5024 43.3707 18.4212 43.0053 18.2588C42.643 18.0932 42.3556 17.8496 42.1432 17.5279C41.9339 17.2062 41.8293 16.8095 41.8293 16.3379C41.8293 15.9319 41.9043 15.5961 42.0542 15.3306C42.2041 15.0651 42.4087 14.8527 42.6679 14.6934C42.9272 14.5342 43.2192 14.4139 43.544 14.3327C43.872 14.2484 44.2109 14.1875 44.5607 14.15C44.9824 14.1063 45.3244 14.0672 45.5867 14.0329C45.8491 13.9954 46.0396 13.9392 46.1583 13.8642C46.2801 13.7861 46.341 13.6659 46.341 13.5034V13.4753C46.341 13.1224 46.2364 12.8491 46.0271 12.6554C45.8179 12.4618 45.5165 12.365 45.1229 12.365C44.7075 12.365 44.378 12.4555 44.1344 12.6367C44.094 12.6671 44.0558 12.6984 44.0199 12.7307C43.7304 12.9903 43.3686 13.239 42.9837 13.1843C42.4973 13.1153 42.1725 12.6165 42.4611 12.2189C42.5285 12.1262 42.6021 12.039 42.682 11.9574C42.9693 11.6607 43.3207 11.4389 43.7361 11.2921C44.1515 11.1422 44.6107 11.0672 45.1135 11.0672C45.4602 11.0672 45.8054 11.1078 46.1489 11.189C46.4925 11.2702 46.8064 11.4045 47.0906 11.5919C47.3749 11.7762 47.6029 12.0276 47.7747 12.3462C47.9496 12.6648 48.037 13.063 48.037 13.5409V18.3572H46.4066V17.3686H46.3504C46.2473 17.5685 46.1021 17.7559 45.9147 17.9308C45.7304 18.1026 45.4977 18.2416 45.2166 18.3478C44.9386 18.4509 44.6122 18.5024 44.2374 18.5024ZM44.6778 17.2562C45.0183 17.2562 45.3134 17.189 45.5633 17.0547C45.8132 16.9173 46.0053 16.7361 46.1396 16.5112C46.277 16.2864 46.3457 16.0412 46.3457 15.7757V14.9277C46.2926 14.9714 46.202 15.012 46.074 15.0495C45.949 15.087 45.8085 15.1198 45.6523 15.1479C45.4962 15.176 45.3415 15.201 45.1885 15.2229C45.0355 15.2447 44.9027 15.2635 44.7903 15.2791C44.5373 15.3134 44.3108 15.3697 44.1109 15.4477C43.911 15.5258 43.7533 15.6351 43.6377 15.7757C43.5222 15.9131 43.4644 16.0912 43.4644 16.3098C43.4644 16.6221 43.5784 16.8579 43.8064 17.0172C44.0344 17.1765 44.3249 17.2562 44.6778 17.2562Z" fill="#0A033C"/>
<path d="M49.7424 18.3572V11.9831C49.7424 11.529 50.1105 11.1609 50.5646 11.1609C51.0187 11.1609 51.3868 11.529 51.3868 11.9831V12.3603H51.4618C51.593 11.9449 51.8179 11.6247 52.1364 11.3998C52.4581 11.1718 52.8251 11.0578 53.2374 11.0578C53.3311 11.0578 53.4358 11.0625 53.5513 11.0719C53.67 11.0781 53.7684 11.0891 53.8465 11.1047V12.6648C53.7747 12.6398 53.6606 12.618 53.5045 12.5992C53.3514 12.5774 53.2031 12.5664 53.0594 12.5664C52.7502 12.5664 52.4722 12.6336 52.2255 12.7679C51.9818 12.8991 51.7897 13.0818 51.6492 13.316C51.5086 13.5503 51.4384 13.8205 51.4384 14.1266V18.3572H49.7424Z" fill="#0A033C"/>
<path d="M56.6692 14.1406V18.3572H54.9732V11.9714C54.9732 11.5238 55.3361 11.1609 55.7838 11.1609C56.2314 11.1609 56.5943 11.5238 56.5943 11.9714V12.3837H56.6786C56.8441 11.9808 57.1081 11.6607 57.4704 11.4233C57.8358 11.1859 58.2871 11.0672 58.8244 11.0672C59.321 11.0672 59.7536 11.1734 60.1221 11.3858C60.4938 11.5982 60.7812 11.9058 60.9842 12.3088C61.1903 12.7117 61.2918 13.2005 61.2887 13.7752V18.3572H59.5927V14.0375C59.5927 13.5565 59.4678 13.1802 59.2179 12.9084C58.9712 12.6367 58.6292 12.5008 58.1919 12.5008C57.8952 12.5008 57.6312 12.5664 57.4001 12.6976C57.1721 12.8257 56.9925 13.0115 56.8613 13.2551C56.7333 13.4988 56.6692 13.7939 56.6692 14.1406Z" fill="#0A033C"/>
<path d="M63.8608 18.3572C63.3925 18.3572 63.0128 17.9775 63.0128 17.5092V12.0089C63.0128 11.5406 63.3925 11.1609 63.8608 11.1609C64.3291 11.1609 64.7088 11.5406 64.7088 12.0089V17.5092C64.7088 17.9775 64.3291 18.3572 63.8608 18.3572ZM63.8655 10.1396C63.5969 10.1396 63.3657 10.0506 63.1721 9.87252C62.9785 9.69136 62.8816 9.47429 62.8816 9.2213C62.8816 8.96518 62.9785 8.74811 63.1721 8.57007C63.3657 8.38892 63.5969 8.29834 63.8655 8.29834C64.1372 8.29834 64.3683 8.38892 64.5589 8.57007C64.7525 8.74811 64.8493 8.96518 64.8493 9.2213C64.8493 9.47429 64.7525 9.69136 64.5589 9.87252C64.3683 10.0506 64.1372 10.1396 63.8655 10.1396Z" fill="#0A033C"/>
<path d="M68.1488 14.1406V18.3572H66.4528V11.9714C66.4528 11.5238 66.8157 11.1609 67.2633 11.1609C67.711 11.1609 68.0738 11.5238 68.0738 11.9714V12.3837H68.1582C68.3237 11.9808 68.5876 11.6607 68.9499 11.4233C69.3154 11.1859 69.7667 11.0672 70.3039 11.0672C70.8005 11.0672 71.2331 11.1734 71.6017 11.3858C71.9734 11.5982 72.2607 11.9058 72.4637 12.3088C72.6699 12.7117 72.7714 13.2005 72.7683 13.7752V18.3572H71.0723V14.0375C71.0723 13.5565 70.9473 13.1802 70.6975 12.9084C70.4507 12.6367 70.1087 12.5008 69.6714 12.5008C69.3747 12.5008 69.1108 12.5664 68.8797 12.6976C68.6517 12.8257 68.4721 13.0115 68.3409 13.2551C68.2128 13.4988 68.1488 13.7939 68.1488 14.1406Z" fill="#0A033C"/>
<path d="M77.622 21.2057C77.0129 21.2057 76.4898 21.1229 76.0525 20.9574C75.6152 20.795 75.2638 20.5763 74.9984 20.3015C74.7329 20.0266 74.5486 19.7221 74.4455 19.3879L75.9728 19.0178C76.0416 19.1583 76.1415 19.2973 76.2727 19.4347C76.4039 19.5753 76.5803 19.6908 76.8021 19.7814C77.027 19.8751 77.3097 19.922 77.6501 19.922C78.1311 19.922 78.5293 19.8048 78.8448 19.5706C79.1603 19.3395 79.318 18.9584 79.318 18.4274V17.0641H79.2337C79.1462 17.239 79.0181 17.4186 78.8495 17.6029C78.6839 17.7871 78.4637 17.9418 78.1889 18.0667C77.9171 18.1916 77.5751 18.2541 77.1629 18.2541C76.61 18.2541 76.1087 18.1245 75.659 17.8652C75.2123 17.6029 74.8562 17.2124 74.5908 16.694C74.3284 16.1724 74.1972 15.5196 74.1972 14.7356C74.1972 13.9454 74.3284 13.2786 74.5908 12.7351C74.8562 12.1885 75.2139 11.7747 75.6636 11.4936C76.1134 11.2093 76.6147 11.0672 77.1675 11.0672C77.5892 11.0672 77.9359 11.139 78.2076 11.2827C78.4825 11.4233 78.7011 11.5935 78.8635 11.7934C79.0259 11.9902 79.1493 12.176 79.2337 12.3509H79.3274V11.1609H80.9999V18.4743C80.9999 19.0896 80.8531 19.5987 80.5595 20.0016C80.2659 20.4045 79.8646 20.7059 79.3555 20.9058C78.8464 21.1057 78.2685 21.2057 77.622 21.2057ZM77.636 16.9235C77.9952 16.9235 78.3013 16.8361 78.5543 16.6612C78.8073 16.4863 78.9994 16.2348 79.1306 15.9069C79.2618 15.5789 79.3274 15.1854 79.3274 14.7262C79.3274 14.2734 79.2618 13.8767 79.1306 13.5362C79.0025 13.1958 78.812 12.9319 78.559 12.7445C78.3091 12.5539 78.0015 12.4587 77.636 12.4587C77.2581 12.4587 76.9427 12.5571 76.6897 12.7538C76.4367 12.9506 76.2461 13.2208 76.1181 13.5643C75.99 13.9048 75.926 14.2921 75.926 14.7262C75.926 15.1666 75.99 15.5524 76.1181 15.8835C76.2493 16.2114 76.4414 16.4675 76.6943 16.6518C76.9505 16.833 77.2644 16.9235 77.636 16.9235Z" fill="#0A033C"/>
<defs>
<linearGradient id="paint0_linear_948_18275" x1="0" y1="0" x2="21.193" y2="4.13411" gradientUnits="userSpaceOnUse">
<stop stop-color="#9C4DF4"/>
<stop offset="1" stop-color="#B071F6"/>
</linearGradient>
<linearGradient id="paint1_linear_948_18275" x1="7.04735" y1="7.96728" x2="16.4387" y2="21.5685" gradientUnits="userSpaceOnUse">
<stop stop-color="#FFA093"/>
<stop offset="1" stop-color="#FF6652"/>
</linearGradient>
<clipPath id="clip0_948_18275">
<rect width="16.5739" height="16.5739" fill="white" transform="translate(1.04053 7.96729)"/>
</clipPath>
</defs>
</svg>
