<svg width="125" height="38" viewBox="0 0 125 38" fill="none" xmlns="http://www.w3.org/2000/svg">
<path d="M28.4082 12.7236V21.6865C28.4082 25.3944 25.3895 28.4082 21.68 28.4082H17.942V21.6846C17.942 19.6265 16.2645 17.9529 14.2041 17.9529C12.1438 17.9529 10.4662 19.6265 10.4662 21.6846V28.4082H6.72827C3.01875 28.4082 0 25.3929 0 21.6865V12.7236C0 10.6789 0.915035 8.76892 2.50889 7.48557L9.98474 1.47407C12.4278 -0.491355 15.9759 -0.491355 18.422 1.47407L25.8978 7.48557C27.4932 8.76892 28.4082 10.6774 28.4082 12.7236Z" fill="url(#paint0_linear_1401_5057)"/>
<g clip-path="url(#clip0_1401_5057)">
<path d="M14.3944 29.3462C12.7082 29.3462 11.0599 28.8462 9.65783 27.9094C8.25579 26.9726 7.16304 25.641 6.51775 24.0832C5.87247 22.5253 5.70363 20.8111 6.0326 19.1573C6.36156 17.5035 7.17355 15.9844 8.36588 14.792C9.55822 13.5997 11.0773 12.7877 12.7312 12.4587C14.385 12.1298 16.0992 12.2986 17.6571 12.9439C19.2149 13.5892 20.5464 14.6819 21.4832 16.084C22.4201 17.486 22.9201 19.1344 22.9201 20.8206C22.9175 23.0809 22.0185 25.248 20.4202 26.8463C18.8219 28.4446 16.6548 29.3437 14.3944 29.3462ZM14.3944 31.4776C12.0855 31.4766 9.84007 30.721 8.00019 29.326V35.2076C8.00018 35.7095 8.14194 36.2012 8.40914 36.626C8.67633 37.0509 9.0581 37.3916 9.51047 37.609C9.96284 37.8264 10.4674 37.9116 10.9661 37.8548C11.4647 37.7979 11.9372 37.6014 12.3291 37.2878L14.0619 35.9024C14.1564 35.827 14.2736 35.786 14.3944 35.786C14.5153 35.786 14.6325 35.827 14.7269 35.9024L16.4598 37.2878C16.8516 37.6014 17.3241 37.7979 17.8228 37.8548C18.3214 37.9116 18.826 37.8264 19.2784 37.609C19.7308 37.3916 20.1125 37.0509 20.3797 36.626C20.6469 36.2012 20.7887 35.7095 20.7887 35.2076V29.326C18.9487 30.7209 16.7034 31.4764 14.3944 31.4776Z" fill="url(#paint1_linear_1401_5057)"/>
</g>
<rect x="12.6769" y="18.4033" width="3.05396" height="8.78015" rx="1.52698" fill="white"/>
<circle cx="14.2039" cy="16.1129" r="1.52698" fill="white"/>
<ellipse cx="119.756" cy="22.7931" rx="1.33611" ry="1.71785" fill="#0A033C"/>
<path d="M37.4715 28.3285C36.7487 28.3285 36.1628 27.7426 36.1628 27.0199V18.5318C36.1628 17.8091 36.7487 17.2232 37.4715 17.2232C38.1942 17.2232 38.7801 17.8091 38.7801 18.5318V27.0199C38.7801 27.7426 38.1942 28.3285 37.4715 28.3285ZM37.4787 15.6471C37.0642 15.6471 36.7075 15.5097 36.4086 15.235C36.1098 14.9554 35.9604 14.6204 35.9604 14.23C35.9604 13.8347 36.1098 13.4997 36.4086 13.225C36.7075 12.9454 37.0642 12.8057 37.4787 12.8057C37.898 12.8057 38.2547 12.9454 38.5487 13.225C38.8476 13.4997 38.997 13.8347 38.997 14.23C38.997 14.6204 38.8476 14.9554 38.5487 15.235C38.2547 15.5097 37.898 15.6471 37.4787 15.6471Z" fill="#0A033C"/>
<path d="M41.5872 28.3285V20.925V14.8626C41.5872 14.1219 42.1876 13.5214 42.9283 13.5214C43.669 13.5214 44.2695 14.1219 44.2695 14.8626V26.08H50.791V28.3285H41.5872Z" fill="#0A033C"/>
<path d="M57.9198 28.5454C56.8064 28.5454 55.8448 28.3141 55.035 27.8514C54.2301 27.3838 53.6107 26.7235 53.1769 25.8703C52.7431 25.0124 52.5262 24.0026 52.5262 22.8409C52.5262 21.6986 52.7431 20.696 53.1769 19.8333C53.6155 18.9656 54.2277 18.2908 55.0133 17.8088C55.799 17.322 56.722 17.0786 57.7824 17.0786C58.4669 17.0786 59.1128 17.1895 59.7201 17.4112C60.3322 17.6281 60.8721 17.9655 61.3396 18.4234C61.812 18.8813 62.1831 19.4645 62.453 20.1731C62.7229 20.8768 62.8579 21.7155 62.8579 22.6891V23.4916H53.7553V21.7275H60.3491C60.3443 21.2262 60.2358 20.7804 60.0237 20.39C59.8117 19.9947 59.5152 19.6838 59.1344 19.4573C58.7585 19.2308 58.3199 19.1175 57.8186 19.1175C57.2836 19.1175 56.8136 19.2476 56.4087 19.5079C56.0038 19.7634 55.6881 20.1008 55.4616 20.5201C55.2399 20.9346 55.1266 21.3901 55.1218 21.8866V23.4266C55.1218 24.0725 55.2399 24.6268 55.476 25.0895C55.7122 25.5474 56.0424 25.8992 56.4666 26.1451C56.8907 26.3861 57.3872 26.5066 57.9559 26.5066C58.3367 26.5066 58.6814 26.4535 58.9898 26.3475C59.2983 26.2366 59.5658 26.0752 59.7924 25.8631C60.0189 25.651 60.19 25.3883 60.3057 25.075L62.7495 25.3498C62.5952 25.9956 62.3012 26.5596 61.8674 27.0416C61.4384 27.5188 60.8889 27.8899 60.2189 28.155C59.549 28.4153 58.7826 28.5454 57.9198 28.5454Z" fill="#0A033C"/>
<path d="M68.2678 28.5527C67.5641 28.5527 66.9302 28.4273 66.3663 28.1767C65.8072 27.9212 65.3637 27.5453 65.036 27.0488C64.713 26.5524 64.5515 25.9402 64.5515 25.2124C64.5515 24.5858 64.6672 24.0676 64.8986 23.6579C65.1299 23.2482 65.4457 22.9205 65.8457 22.6747C66.2458 22.4288 66.6965 22.2433 67.1977 22.1179C67.7038 21.9878 68.2268 21.8938 68.7666 21.836C69.4174 21.7685 69.9451 21.7082 70.35 21.6552C70.7549 21.5974 71.0489 21.5106 71.2321 21.3949C71.4201 21.2744 71.5141 21.0889 71.5141 20.8382V20.7948C71.5141 20.2502 71.3526 19.8284 71.0296 19.5296C70.7067 19.2308 70.2416 19.0813 69.6343 19.0813C68.9932 19.0813 68.4847 19.2211 68.1087 19.5007C68.0464 19.5476 67.9875 19.5959 67.932 19.6457C67.4853 20.0463 66.927 20.4302 66.333 20.3458C65.5823 20.2392 65.0811 19.4695 65.5266 18.856C65.6305 18.7128 65.7441 18.5783 65.8674 18.4523C66.3108 17.9944 66.8531 17.6522 67.4942 17.4257C68.1352 17.1943 68.8438 17.0786 69.6198 17.0786C70.1548 17.0786 70.6874 17.1413 71.2176 17.2666C71.7478 17.3919 72.2322 17.5992 72.6709 17.8884C73.1095 18.1728 73.4613 18.5608 73.7264 19.0524C73.9964 19.5441 74.1313 20.1586 74.1313 20.8961V28.3285H71.6153V26.803H71.5285C71.3695 27.1115 71.1453 27.4007 70.8561 27.6706C70.5717 27.9357 70.2127 28.1502 69.7789 28.3141C69.3499 28.4731 68.8462 28.5527 68.2678 28.5527ZM68.9474 26.6295C69.4728 26.6295 69.9283 26.5259 70.3139 26.3186C70.6995 26.1065 70.9959 25.8269 71.2032 25.4799C71.4152 25.1329 71.5213 24.7545 71.5213 24.3448V23.0362C71.4393 23.1036 71.2996 23.1663 71.1019 23.2241C70.9091 23.282 70.6922 23.3326 70.4512 23.376C70.2102 23.4193 69.9717 23.4579 69.7355 23.4916C69.4993 23.5254 69.2944 23.5543 69.1209 23.5784C68.7305 23.6314 68.381 23.7182 68.0726 23.8387C67.7641 23.9592 67.5207 24.1279 67.3423 24.3448C67.164 24.5569 67.0748 24.8316 67.0748 25.169C67.0748 25.651 67.2507 26.0149 67.6026 26.2607C67.9545 26.5066 68.4027 26.6295 68.9474 26.6295Z" fill="#0A033C"/>
<path d="M76.7631 28.3285V18.4921C76.7631 17.7913 77.3312 17.2232 78.0319 17.2232C78.7327 17.2232 79.3008 17.7913 79.3008 18.4921V19.0741H79.4165C79.6189 18.433 79.966 17.939 80.4576 17.5919C80.9541 17.2401 81.5204 17.0642 82.1567 17.0642C82.3013 17.0642 82.4627 17.0714 82.6411 17.0858C82.8242 17.0955 82.9761 17.1124 83.0966 17.1365V19.5441C82.9857 19.5055 82.8098 19.4718 82.5688 19.4428C82.3326 19.4091 82.1036 19.3922 81.8819 19.3922C81.4047 19.3922 80.9758 19.4959 80.595 19.7031C80.219 19.9056 79.9226 20.1875 79.7057 20.549C79.4888 20.9105 79.3803 21.3275 79.3803 21.7998V28.3285H76.7631Z" fill="#0A033C"/>
<path d="M87.4527 21.8215V28.3285H84.8354V18.474C84.8354 17.7832 85.3954 17.2232 86.0862 17.2232C86.777 17.2232 87.337 17.7832 87.337 18.474V19.1102H87.4671C87.7226 18.4885 88.1299 17.9944 88.689 17.6281C89.2529 17.2618 89.9494 17.0786 90.7785 17.0786C91.5449 17.0786 92.2124 17.2425 92.7812 17.5703C93.3548 17.898 93.7982 18.3728 94.1115 18.9946C94.4296 19.6164 94.5863 20.3707 94.5815 21.2576V28.3285H91.9642V21.6625C91.9642 20.9202 91.7714 20.3394 91.3858 19.92C91.005 19.5007 90.4772 19.291 89.8024 19.291C89.3445 19.291 88.9372 19.3922 88.5805 19.5947C88.2287 19.7923 87.9515 20.0791 87.7491 20.455C87.5515 20.831 87.4527 21.2865 87.4527 21.8215Z" fill="#0A033C"/>
<path d="M98.5508 28.3285C97.828 28.3285 97.2421 27.7426 97.2421 27.0199V18.5318C97.2421 17.8091 97.828 17.2232 98.5508 17.2232C99.2735 17.2232 99.8594 17.8091 99.8594 18.5318V27.0199C99.8594 27.7426 99.2735 28.3285 98.5508 28.3285ZM98.558 15.6471C98.1435 15.6471 97.7868 15.5097 97.4879 15.235C97.1891 14.9554 97.0397 14.6204 97.0397 14.23C97.0397 13.8347 97.1891 13.4997 97.4879 13.225C97.7868 12.9454 98.1435 12.8057 98.558 12.8057C98.9773 12.8057 99.334 12.9454 99.628 13.225C99.9269 13.4997 100.076 13.8347 100.076 14.23C100.076 14.6204 99.9269 14.9554 99.628 15.235C99.334 15.5097 98.9773 15.6471 98.558 15.6471Z" fill="#0A033C"/>
<path d="M105.168 21.8215V28.3285H102.551V18.474C102.551 17.7832 103.111 17.2232 103.802 17.2232C104.492 17.2232 105.052 17.7832 105.052 18.474V19.1102H105.183C105.438 18.4885 105.845 17.9944 106.404 17.6281C106.968 17.2618 107.665 17.0786 108.494 17.0786C109.26 17.0786 109.928 17.2425 110.497 17.5703C111.07 17.898 111.514 18.3728 111.827 18.9946C112.145 19.6164 112.302 20.3707 112.297 21.2576V28.3285H109.68V21.6625C109.68 20.9202 109.487 20.3394 109.101 19.92C108.72 19.5007 108.193 19.291 107.518 19.291C107.06 19.291 106.653 19.3922 106.296 19.5947C105.944 19.7923 105.667 20.0791 105.464 20.455C105.267 20.831 105.168 21.2865 105.168 21.8215Z" fill="#0A033C"/>
<path d="M119.787 32.7244C118.847 32.7244 118.04 32.5967 117.365 32.3412C116.69 32.0906 116.148 31.7532 115.738 31.329C115.329 30.9048 115.044 30.4349 114.885 29.9191L117.242 29.348C117.348 29.5649 117.502 29.7794 117.705 29.9914C117.907 30.2083 118.18 30.3867 118.522 30.5265C118.869 30.6711 119.305 30.7434 119.831 30.7434C120.573 30.7434 121.187 30.5626 121.674 30.2011C122.161 29.8444 122.404 29.2564 122.404 28.437V26.333H122.274C122.139 26.603 121.942 26.8801 121.681 27.1645C121.426 27.4489 121.086 27.6875 120.662 27.8803C120.243 28.0731 119.715 28.1695 119.079 28.1695C118.225 28.1695 117.452 27.9694 116.758 27.5694C116.069 27.1645 115.519 26.562 115.109 25.7619C114.704 24.9569 114.502 23.9495 114.502 22.7397C114.502 21.5203 114.704 20.4912 115.109 19.6525C115.519 18.809 116.071 18.1703 116.765 17.7365C117.459 17.2979 118.233 17.0786 119.086 17.0786C119.737 17.0786 120.272 17.1895 120.691 17.4112C121.115 17.6281 121.452 17.8908 121.703 18.1993C121.954 18.5029 122.144 18.7897 122.274 19.0596H122.419V17.2232H125V28.5093C125 29.4588 124.773 30.2445 124.32 30.8663C123.867 31.4881 123.248 31.9532 122.462 32.2617C121.677 32.5702 120.785 32.7244 119.787 32.7244ZM119.809 26.1161C120.363 26.1161 120.836 25.9812 121.226 25.7113C121.616 25.4413 121.913 25.0533 122.115 24.5472C122.318 24.0411 122.419 23.4338 122.419 22.7253C122.419 22.0264 122.318 21.4142 122.115 20.8888C121.918 20.3635 121.624 19.9562 121.233 19.667C120.848 19.3729 120.373 19.2259 119.809 19.2259C119.226 19.2259 118.739 19.3778 118.348 19.6814C117.958 19.9851 117.664 20.402 117.466 20.9322C117.269 21.4576 117.17 22.0553 117.17 22.7253C117.17 23.4049 117.269 24.0002 117.466 24.5111C117.669 25.0172 117.965 25.4124 118.356 25.6968C118.751 25.9764 119.235 26.1161 119.809 26.1161Z" fill="#0A033C"/>
<defs>
<linearGradient id="paint0_linear_1401_5057" x1="0" y1="0" x2="32.7053" y2="6.37981" gradientUnits="userSpaceOnUse">
<stop stop-color="#9C4DF4"/>
<stop offset="1" stop-color="#B071F6"/>
</linearGradient>
<linearGradient id="paint1_linear_1401_5057" x1="10.8759" y1="12.2949" x2="25.3687" y2="33.2845" gradientUnits="userSpaceOnUse">
<stop stop-color="#FFA093"/>
<stop offset="1" stop-color="#FF6652"/>
</linearGradient>
<clipPath id="clip0_1401_5057">
<rect width="25.577" height="25.577" fill="white" transform="translate(1.6062 12.2949)"/>
</clipPath>
</defs>
</svg>
