<svg width="32" height="32" viewBox="0 0 32 32" fill="none" xmlns="http://www.w3.org/2000/svg">
<path d="M29.3346 13.3332H2.66797M14.668 18.6665H8.0013M2.66797 10.9332L2.66797 21.0665C2.66797 22.56 2.66797 23.3067 2.95862 23.8771C3.21428 24.3789 3.62223 24.7869 4.12399 25.0425C4.69443 25.3332 5.44116 25.3332 6.93463 25.3332L25.068 25.3332C26.5614 25.3332 27.3082 25.3332 27.8786 25.0425C28.3804 24.7869 28.7883 24.3789 29.044 23.8771C29.3346 23.3067 29.3346 22.56 29.3346 21.0665V10.9332C29.3346 9.4397 29.3346 8.69296 29.044 8.12253C28.7883 7.62077 28.3804 7.21282 27.8786 6.95716C27.3082 6.66651 26.5614 6.66651 25.068 6.66651L6.93464 6.6665C5.44116 6.6665 4.69443 6.6665 4.12399 6.95715C3.62223 7.21282 3.21428 7.62076 2.95862 8.12253C2.66797 8.69296 2.66797 9.4397 2.66797 10.9332Z" stroke="#6C688A" stroke-width="2" stroke-linecap="round" stroke-linejoin="round"/>
</svg>
