<svg width="36" height="33" viewBox="0 0 36 33" fill="none" xmlns="http://www.w3.org/2000/svg">
<path d="M0.0421667 4.8125C1.54798 3.48065 3.48971 2.74688 5.5 2.75H30.25C32.3418 2.75 34.2522 3.52917 35.7078 4.8125C35.5404 3.48322 34.8934 2.26078 33.8885 1.37468C32.8836 0.48858 31.5898 -0.000236507 30.25 8.58452e-08H5.5C4.16021 -0.000236507 2.86641 0.48858 1.86148 1.37468C0.856564 2.26078 0.20964 3.48322 0.0421667 4.8125ZM0.0421667 10.3125C1.54798 8.98065 3.48971 8.24688 5.5 8.25H30.25C32.3418 8.25 34.2522 9.02917 35.7078 10.3125C35.5404 8.98322 34.8934 7.76078 33.8885 6.87468C32.8836 5.98858 31.5898 5.49976 30.25 5.5H5.5C4.16021 5.49976 2.86641 5.98858 1.86148 6.87468C0.856564 7.76078 0.20964 8.98322 0.0421667 10.3125ZM5.5 11C4.04131 11 2.64236 11.5795 1.61091 12.6109C0.579463 13.6424 0 15.0413 0 16.5V27.5C0 28.9587 0.579463 30.3576 1.61091 31.3891C2.64236 32.4205 4.04131 33 5.5 33H30.25C31.7087 33 33.1076 32.4205 34.1391 31.3891C35.1705 30.3576 35.75 28.9587 35.75 27.5V16.5C35.75 15.0413 35.1705 13.6424 34.1391 12.6109C33.1076 11.5795 31.7087 11 30.25 11H23.375C23.0103 11 22.6606 11.1449 22.4027 11.4027C22.1449 11.6606 22 12.0103 22 12.375C22 13.469 21.5654 14.5182 20.7918 15.2918C20.0182 16.0654 18.969 16.5 17.875 16.5C16.781 16.5 15.7318 16.0654 14.9582 15.2918C14.1846 14.5182 13.75 13.469 13.75 12.375C13.75 12.0103 13.6051 11.6606 13.3473 11.4027C13.0894 11.1449 12.7397 11 12.375 11H5.5Z" fill="white"/>
</svg>
