<svg width="52" height="52" viewBox="0 0 52 52" fill="none" xmlns="http://www.w3.org/2000/svg">
<circle cx="26" cy="26" r="26" fill="#FFF0EE"/>
<path fill-rule="evenodd" clip-rule="evenodd" d="M28 21C28 23.2091 26.2091 25 24 25C21.7909 25 20 23.2091 20 21C20 18.7909 21.7909 17 24 17C26.2091 17 28 18.7909 28 21ZM31 31C31 33.2091 27.866 35 24 35C20.134 35 17 33.2091 17 31C17 28.7909 20.134 27 24 27C27.866 27 31 28.7909 31 31ZM32 26.75C31.5858 26.75 31.25 26.4142 31.25 26V24.75H30C29.5858 24.75 29.25 24.4142 29.25 24C29.25 23.5858 29.5858 23.25 30 23.25H31.25V22C31.25 21.5858 31.5858 21.25 32 21.25C32.4142 21.25 32.75 21.5858 32.75 22V23.25H34C34.4142 23.25 34.75 23.5858 34.75 24C34.75 24.4142 34.4142 24.75 34 24.75H32.75V26C32.75 26.4142 32.4142 26.75 32 26.75Z" fill="#FF6652"/>
</svg>
