<svg width="86" height="30" viewBox="0 0 86 30" fill="none" xmlns="http://www.w3.org/2000/svg">
<path fill-rule="evenodd" clip-rule="evenodd" d="M51.4306 3.18581C53.9293 2.86037 51.4306 1.12373 51.4306 1.12373C45.7876 -3.327 34.6028 6.87795 34.6028 6.87795C22.9884 17.406 20.3843 25.9827 19.9506 27.9364C19.5146 29.8896 20.8175 29.8896 20.8175 29.8896C24.7245 19.9018 35.1472 10.7861 35.1472 10.7861C42.0943 4.27099 51.4306 3.18581 51.4306 3.18581ZM23.9659 13.9322C23.9659 13.9322 21.9015 4.81473 21.7961 2.42549C21.7961 2.42549 21.4684 1.33973 22.7713 2.1012C22.7713 2.1012 27.8752 6.44193 25.3777 13.9322C25.3777 13.9322 24.7245 15.7789 23.9659 13.9322Z" fill="#FF754C"/>
<path fill-rule="evenodd" clip-rule="evenodd" d="M6.2611 8.4442C4.95704 8.4442 3.63052 8.5738 2.73887 8.79211L0 23.207H2.47737L3.54296 17.6625C3.61342 17.6701 3.68592 17.6786 3.7605 17.6872C4.10053 17.7268 4.48366 17.7713 4.91211 17.7713C6.65105 17.7713 8.32663 17.3146 9.49993 16.3797C10.5436 15.5543 11.3702 14.1397 11.3702 12.4013C11.3702 11.0949 10.8702 10.1399 10.0224 9.48791C9.06621 8.72587 7.6314 8.4442 6.2611 8.4442ZM5.26117 15.7052C4.71742 15.7052 4.34706 15.6626 3.93464 15.5756L4.86949 10.5961C5.17361 10.5103 5.65169 10.4665 6.28356 10.4665C7.71722 10.4665 8.82544 11.031 8.82544 12.596C8.82544 14.3355 7.39063 15.7052 5.26117 15.7052Z" fill="#1B1D21"/>
<path fill-rule="evenodd" clip-rule="evenodd" d="M17.2274 20.9471C17.1432 21.7988 17.0638 22.6017 17.0638 23.2073H19.3903C19.3465 21.9459 19.5199 19.9449 19.8251 18.3799L20.9339 12.8572C20.1074 12.5963 18.8678 12.3792 17.7158 12.3792C12.7801 12.3792 10.2578 16.228 10.2578 19.8372C10.2578 21.9672 11.4985 23.4458 13.3895 23.4458C14.7373 23.4458 16.1514 22.7725 17.1946 20.836H17.2383C17.2347 20.8731 17.231 20.9101 17.2274 20.9471ZM17.0425 14.3358C17.4993 14.3358 17.8247 14.3779 18.085 14.4441L17.5425 17.2279C17.0425 19.9247 15.6065 21.4022 14.4119 21.4022C13.3025 21.4022 12.8895 20.4881 12.8895 19.381C12.8895 16.9676 14.716 14.3358 17.0425 14.3358Z" fill="#1B1D21"/>
<path fill-rule="evenodd" clip-rule="evenodd" d="M37.0412 23.4458C40.6492 23.4458 43.1502 20.359 43.1502 16.751C43.1502 14.4234 41.6716 12.3797 38.8239 12.3797C35.2147 12.3797 32.7148 15.489 32.7148 19.0751C32.7148 21.598 34.3657 23.4458 37.0412 23.4458ZM37.3885 21.4909C36.0839 21.4909 35.323 20.4662 35.323 19.0112C35.323 17.0326 36.4974 14.3358 38.5198 14.3358C40.0404 14.3358 40.5415 15.6837 40.5415 16.7717C40.5415 18.8804 39.2801 21.4909 37.3885 21.4909Z" fill="#1B1D21"/>
<path d="M43.627 23.207L44.9973 15.9011C45.2576 14.6396 45.4097 13.5308 45.5404 12.6185H47.8029L47.5633 14.51H47.6059C48.5834 13.096 49.9324 12.3788 51.411 12.3788C52.9322 12.3788 54.1067 13.293 54.1067 15.2928C54.1067 15.7703 54.0214 16.5093 53.912 17.0318L52.7577 23.207H50.2141L51.3436 17.2276C51.411 16.8365 51.4755 16.3797 51.4755 15.9662C51.4755 15.0745 51.1495 14.4438 50.1496 14.4438C48.9976 14.4438 47.5184 15.8348 47.0622 18.3151L46.1492 23.207H43.627Z" fill="#1B1D21"/>
<path fill-rule="evenodd" clip-rule="evenodd" d="M59.5164 23.4448C60.8003 23.4448 62.2121 23.1401 63.2564 22.597L63.0196 20.7492C62.2564 21.1403 61.3014 21.445 60.1045 21.445C59.1028 21.445 58.3442 21.0757 57.9307 20.3575C57.6911 19.9439 57.6041 19.2268 57.6484 18.8576C61.7357 18.944 64.5829 18.0748 64.5829 15.3578C64.5829 13.5739 63.2564 12.3788 61.1695 12.3788C57.5165 12.3788 55.1699 15.8572 55.1699 19.0534C55.1699 21.6414 56.584 23.4448 59.5164 23.4448ZM57.9082 16.9666C58.2123 15.6827 59.2549 14.2698 60.8429 14.2698C61.6482 14.2698 62.1919 14.6839 62.1919 15.3578C62.1919 16.64 60.5163 16.9879 57.9082 16.9666Z" fill="#1B1D21"/>
<path fill-rule="evenodd" clip-rule="evenodd" d="M69.3664 23.4448C70.648 23.4448 72.0615 23.1401 73.104 22.597L72.8673 20.7492C72.1041 21.1403 71.1491 21.445 69.9522 21.445C68.9522 21.445 68.1919 21.0757 67.7783 20.3575C67.5387 19.9439 67.4512 19.2268 67.4961 18.8576C71.5834 18.944 74.4328 18.0748 74.4328 15.3578C74.4328 13.5739 73.104 12.3788 71.0172 12.3788C67.3642 12.3788 65.0176 15.8572 65.0176 19.0534C65.0176 21.6414 66.4317 23.4448 69.3664 23.4448ZM67.7559 16.9666C68.06 15.6827 69.1043 14.2698 70.6906 14.2698C71.4958 14.2698 72.0396 14.6839 72.0396 15.3578C72.0396 16.64 70.364 16.9879 67.7559 16.9666Z" fill="#1B1D21"/>
<path d="M74.584 23.207L75.823 16.6839C76.1052 15.184 76.2573 13.5533 76.3644 12.6185H78.5613C78.4962 13.3356 78.4317 14.0746 78.3222 14.8366H78.3867C79.1073 13.4226 80.257 12.3788 81.693 12.3788C81.8899 12.3788 82.0846 12.4013 82.2592 12.4013L81.758 14.8798C81.6279 14.8574 81.4539 14.8574 81.2794 14.8574C79.4736 14.8574 78.3222 16.6839 77.9104 18.9446L77.1051 23.207H74.584Z" fill="#1B1D21"/>
<path fill-rule="evenodd" clip-rule="evenodd" d="M84.3468 12.9197C84.2241 12.9197 84.0922 12.9318 84 12.9485V14.332H84.1814V13.7249H84.3514C84.5149 13.7318 84.5927 13.8033 84.6353 13.9968C84.671 14.1713 84.7027 14.2894 84.7252 14.332H84.913C84.8836 14.2773 84.8502 14.1408 84.8052 13.9473C84.7695 13.8021 84.7067 13.7013 84.5996 13.6644V13.6575C84.7566 13.6117 84.8638 13.4668 84.8617 13.3033C84.8652 13.2022 84.8252 13.1044 84.7517 13.0349C84.667 12.9589 84.5391 12.9197 84.3468 12.9197ZM84.3669 13.5873H84.1814V13.0752C84.2108 13.0683 84.273 13.062 84.3606 13.062C84.5507 13.062 84.6826 13.1409 84.6826 13.3212C84.6826 13.4813 84.557 13.5873 84.3669 13.5873Z" fill="#1B1D21"/>
<path fill-rule="evenodd" clip-rule="evenodd" d="M83.209 13.6317C83.209 12.9573 83.7424 12.4036 84.4164 12.3786C85.0904 12.4036 85.6238 12.9573 85.6238 13.6317C85.6238 14.3061 85.0904 14.8597 84.4164 14.8848C83.7424 14.8597 83.209 14.3061 83.209 13.6317ZM85.165 12.8825C84.9665 12.6838 84.6972 12.5721 84.4164 12.5721C83.9875 12.5714 83.6005 12.8293 83.4359 13.2253C83.2714 13.6214 83.3617 14.0776 83.6648 14.381C83.9679 14.6844 84.424 14.7753 84.8202 14.6111C85.2165 14.447 85.4747 14.0603 85.4745 13.6314C85.4748 13.3506 85.3635 13.0811 85.165 12.8825Z" fill="#1B1D21"/>
</svg>
