<svg width="64" height="64" viewBox="0 0 64 64" fill="none" xmlns="http://www.w3.org/2000/svg">
<rect width="64" height="64" rx="32" fill="#9C4DF4"/>
<path d="M39.1112 46.2222H24.8889C24.3058 46.2222 23.8223 45.7386 23.8223 45.1555C23.8223 44.5724 24.3058 44.0889 24.8889 44.0889H39.1112C39.6943 44.0889 40.1778 44.5724 40.1778 45.1555C40.1778 45.7386 39.6943 46.2222 39.1112 46.2222Z" fill="white"/>
<path d="M43.8759 22.784L38.187 26.8515C37.4332 27.392 36.3523 27.0649 36.0252 26.1973L33.3372 19.0293C32.8821 17.792 31.1328 17.792 30.6776 19.0293L27.9754 26.1831C27.6483 27.0649 26.5816 27.392 25.8279 26.8373L20.139 22.7698C19.0012 21.9733 17.4936 23.0969 17.963 24.4195L23.8794 40.9884C24.0785 41.5573 24.619 41.9271 25.2163 41.9271H38.7701C39.3674 41.9271 39.9079 41.5431 40.107 40.9884L46.0234 24.4195C46.507 23.0969 44.9994 21.9733 43.8759 22.784ZM35.5559 35.9111H28.4448C27.8616 35.9111 27.3781 35.4275 27.3781 34.8444C27.3781 34.2613 27.8616 33.7778 28.4448 33.7778H35.5559C36.139 33.7778 36.6225 34.2613 36.6225 34.8444C36.6225 35.4275 36.139 35.9111 35.5559 35.9111Z" fill="white"/>
</svg>
