<svg width="24" height="24" viewBox="0 0 24 24" fill="none" xmlns="http://www.w3.org/2000/svg">
<path d="M21.75 18.75H17C15.481 18.75 14.25 17.519 14.25 16V14C14.25 12.481 15.481 11.25 17 11.25H21.75V10C21.75 9.271 21.46 8.571 20.945 8.055C20.429 7.54 19.729 7.25 19 7.25C15.537 7.25 8.463 7.25 5 7.25C4.271 7.25 3.571 7.54 3.055 8.055C2.54 8.571 2.25 9.271 2.25 10V20C2.25 20.729 2.54 21.429 3.055 21.945C3.571 22.46 4.271 22.75 5 22.75H19C19.729 22.75 20.429 22.46 20.945 21.945C21.46 21.429 21.75 20.729 21.75 20V18.75ZM21.75 12.75V17.25H17C16.31 17.25 15.75 16.69 15.75 16V14C15.75 13.31 16.31 12.75 17 12.75H21.75ZM17.759 14.241C18.179 14.241 18.519 14.581 18.519 15C18.519 15.419 18.179 15.759 17.759 15.759C17.34 15.759 17 15.419 17 15C17 14.581 17.34 14.241 17.759 14.241Z" fill="#FF6652"/>
<path d="M4.52891 6.27991C4.68491 6.25991 4.84191 6.24991 4.99991 6.24991H14.6789L14.6779 6.24791L13.2589 2.50791C13.0759 2.02491 12.7079 1.63391 12.2359 1.42191C11.7639 1.20991 11.2279 1.19291 10.7439 1.37691C9.33191 1.91191 6.92091 2.82691 5.50791 3.36291C5.02491 3.54591 4.63391 3.91391 4.42191 4.38591C4.20991 4.85791 4.19291 5.39391 4.37691 5.87791L4.52891 6.27991Z" fill="#FF6652"/>
<path d="M15.7222 6.24991H18.9992C19.2162 6.24991 19.4322 6.26891 19.6432 6.30591C19.6362 6.28591 19.6292 6.26691 19.6222 6.24791C19.2172 5.17891 18.6092 3.57791 18.2042 2.50791C18.0202 2.02491 17.6522 1.63391 17.1802 1.42191C16.7092 1.20991 16.1722 1.19291 15.6892 1.37691L14.1172 1.97291C14.1452 2.03191 14.1702 2.09191 14.1932 2.15391L15.6122 5.89391C15.6562 6.01091 15.6932 6.12991 15.7222 6.24991Z" fill="#FF6652"/>
</svg>
