<svg width="40" height="40" viewBox="0 0 40 40" fill="none" xmlns="http://www.w3.org/2000/svg">
<path fill-rule="evenodd" clip-rule="evenodd" d="M10.6666 3.99987C10.6666 1.79108 12.4572 0 14.6664 0C16.8777 0.00221357 18.6686 1.79291 18.6668 3.99987V7.99973H14.6664C13.6045 7.99867 12.5865 7.57666 11.8364 6.82654C11.0864 6.07642 10.6656 5.05963 10.6666 3.99987ZM3.99973 10.666H14.6664C16.8755 10.666 18.6668 12.4571 18.6668 14.6665C18.6668 16.8753 16.8755 18.6664 14.667 18.6664H3.99973C1.7906 18.6664 0 16.8753 0 14.6665C0 12.4571 1.7906 10.666 3.99973 10.666Z" fill="#36C5F0"/>
<path fill-rule="evenodd" clip-rule="evenodd" d="M29.3331 3.99987V14.6668V14.6675C29.335 16.8745 27.5441 18.6652 25.3327 18.6674C23.1236 18.6674 21.333 16.8763 21.333 14.6662V3.99987C21.333 1.79108 23.1236 0 25.3327 0C27.5441 0.00221357 29.335 1.79291 29.3331 3.99987ZM35.9994 10.666C38.2085 10.666 39.9998 12.4571 39.9998 14.6665C40.0016 16.8735 38.2107 18.6642 35.9994 18.6664H31.9996V14.6665C31.9996 12.4571 33.7902 10.666 35.9994 10.666Z" fill="#2EB67D"/>
<path fill-rule="evenodd" clip-rule="evenodd" d="M36 29.3334H25.3327V29.3327C24.2709 29.3317 23.2529 28.9097 22.5028 28.1595C21.7527 27.4094 21.3319 26.3926 21.333 25.3329C21.333 23.1241 23.1236 21.333 25.3327 21.333H35.9994C38.2107 21.3352 40.0016 23.1259 39.9998 25.3329C39.9998 27.5423 38.2085 29.3334 36 29.3334ZM29.3331 35.9999C29.335 38.2068 27.5441 39.9975 25.3327 39.9997C23.1236 39.9997 21.333 38.2086 21.333 35.9999V32H25.3327C27.5441 32.0022 29.335 33.7929 29.3331 35.9999Z" fill="#ECB22E"/>
<path fill-rule="evenodd" clip-rule="evenodd" d="M1.16983 28.1595C0.419736 27.4094 -0.0010641 26.3926 2.02089e-06 25.3329C2.02089e-06 23.1241 1.79061 21.333 3.99973 21.333H8.00013V25.3329C8.00198 27.5398 6.21105 29.3305 3.99973 29.3327C2.93787 29.3317 1.91993 28.9097 1.16983 28.1595ZM10.6666 35.9992V25.3329C10.6666 23.1241 12.4572 21.333 14.6664 21.333C15.7283 21.3339 16.7464 21.7558 17.4967 22.506C18.2469 23.2561 18.6678 24.273 18.6668 25.3329V35.9999C18.6686 38.2068 16.8777 39.9975 14.6664 39.9997C12.4572 39.9997 10.6666 38.2086 10.6666 35.9992Z" fill="#FC0000"/>
</svg>
