<svg width="25" height="21" viewBox="0 0 25 21" fill="none" xmlns="http://www.w3.org/2000/svg">
<path d="M20.8096 0H4.19041C3.07905 0 2.0132 0.441489 1.22734 1.22734C0.441489 2.0132 0 3.07905 0 4.19041V15.9236C0 17.0349 0.441489 18.1008 1.22734 18.8866C2.0132 19.6725 3.07905 20.114 4.19041 20.114H20.8096C21.921 20.114 22.9868 19.6725 23.7727 18.8866C24.5585 18.1008 25 17.0349 25 15.9236V4.19041C25 3.07905 24.5585 2.0132 23.7727 1.22734C22.9868 0.441489 21.921 0 20.8096 0ZM16.9879 11.1633L10.1115 14.8508C9.92863 14.9495 9.72419 15.0013 9.51643 15.0017C9.18302 15.0017 8.86326 14.8692 8.62751 14.6335C8.39175 14.3977 8.2593 14.078 8.2593 13.7446V6.36943C8.25949 6.1521 8.31602 5.93854 8.42337 5.74958C8.53072 5.56062 8.68522 5.40271 8.8718 5.29127C9.05837 5.17983 9.27065 5.11866 9.48792 5.11374C9.70519 5.10881 9.92003 5.16029 10.1115 5.26316L16.9879 8.95072C17.1875 9.05844 17.3542 9.21813 17.4704 9.41289C17.5866 9.60764 17.648 9.8302 17.648 10.057C17.648 10.2838 17.5866 10.5063 17.4704 10.7011C17.3542 10.8958 17.1875 11.0555 16.9879 11.1633ZM9.93547 7.06923L15.5045 10.057L9.93547 13.0448V7.06923Z" fill="url(#paint0_linear_944_18757)"/>
<defs>
<linearGradient id="paint0_linear_944_18757" x1="7.34127" y1="-4.03744e-07" x2="15.2801" y2="21.4358" gradientUnits="userSpaceOnUse">
<stop stop-color="#FFA093"/>
<stop offset="1" stop-color="#FF6652"/>
</linearGradient>
</defs>
</svg>
