<svg width="57" height="20" viewBox="0 0 57 20" fill="none" xmlns="http://www.w3.org/2000/svg">
<g clip-path="url(#clip0_1099_42675)">
<path d="M24.6994 19.226H20.082L22.9701 0.833496H27.5872L24.6994 19.226Z" fill="#00579F"/>
<path d="M41.4388 1.28304C40.5281 0.910896 39.0835 0.5 37.2974 0.5C32.7376 0.5 29.5266 3.00438 29.5069 6.58489C29.469 9.22659 31.8058 10.6938 33.5536 11.5747C35.34 12.4747 35.9473 13.0622 35.9473 13.8645C35.9291 15.0967 34.5038 15.6646 33.1744 15.6646C31.3309 15.6646 30.3431 15.3718 28.842 14.6863L28.234 14.3924L27.5879 18.5211C28.6708 19.0293 30.6661 19.4802 32.7376 19.5C37.5825 19.5 40.7366 17.0344 40.774 13.2188C40.7924 11.125 39.5585 9.52071 36.8982 8.20975C35.2832 7.36819 34.2942 6.80074 34.2942 5.93968C34.3131 5.1569 35.1307 4.35513 36.9537 4.35513C38.4548 4.31587 39.5577 4.68749 40.3932 5.05938L40.8109 5.25468L41.4388 1.28304Z" fill="#00579F"/>
<path d="M47.5755 12.7102C47.9558 11.6536 49.419 7.56412 49.419 7.56412C49.3998 7.60338 49.7985 6.48799 50.0265 5.80325L50.3492 7.38806C50.3492 7.38806 51.2236 11.7906 51.4134 12.7102C50.6918 12.7102 48.4875 12.7102 47.5755 12.7102ZM53.2751 0.833496H49.7035C48.6022 0.833496 47.7654 1.16585 47.2902 2.35953L40.4316 19.2257H45.2765C45.2765 19.2257 46.0742 16.9557 46.2456 16.4668C46.7771 16.4668 51.4902 16.4668 52.174 16.4668C52.3065 17.1125 52.7249 19.2257 52.7249 19.2257H57.0002L53.2751 0.833496Z" fill="#00579F"/>
<path d="M16.2261 0.833496L11.7042 13.3754L11.21 10.8318C10.374 7.89674 7.7521 4.70788 4.82617 3.12229L8.96812 19.2065H13.8509L21.1087 0.833496H16.2261Z" fill="#00579F"/>
<path d="M7.50495 0.833496H0.076001L0 1.20512C5.79504 2.73142 9.63298 6.41049 11.2098 10.8326L9.59486 2.37955C9.32898 1.20486 8.5119 0.872245 7.50495 0.833496Z" fill="#FAA61A"/>
</g>
<defs>
<clipPath id="clip0_1099_42675">
<rect width="57" height="19" fill="white" transform="translate(0 0.5)"/>
</clipPath>
</defs>
</svg>
